<svg id="Layer_1" data-name="Layer 1" xmlns="http://www.w3.org/2000/svg" viewBox="0 0 1417 326">
  <defs>
    <style>
      .cls-1, .cls-5 {
        fill: #fff;
      }

      .cls-1 {
        opacity: 0;
      }

      .cls-2 {
        fill: #1d1d1d;
      }

      .cls-3 {
        fill: #405056;
      }

      .cls-4 {
        fill: #032633;
      }

      .cls-6 {
        fill: #4c4c4c;
      }
    </style>
  </defs>
  <rect class="cls-1" width="1417" height="326"/>
  <g>
    <g>
      <path class="cls-2" d="M137.07,101.55a8.37,8.37,0,0,0,.7.46,4.24,4.24,0,0,1,2.34,3.33,5.94,5.94,0,0,1-1.69,5.26,6.25,6.25,0,0,1-3.44,1.75,14.54,14.54,0,0,1-2.28.21c-2.62,0-5.24,0-7.86,0-.53,0-.69-.16-.69-.69q0-9.94,0-19.89c0-.53.17-.69.7-.68,2.6,0,5.2,0,7.8,0a7.65,7.65,0,0,1,4,1,5.36,5.36,0,0,1,2.49,3.27,5.26,5.26,0,0,1-.64,4.61A12.1,12.1,0,0,1,137.07,101.55ZM131,103.37v.1c-.73,0-1.45,0-2.17,0-.45,0-.68.18-.68.65,0,1.45,0,2.89,0,4.34,0,.42.19.65.62.65,1.45,0,2.9.06,4.34,0,2.29-.15,3.45-1.69,2.9-3.73a2,2,0,0,0-1.66-1.63C133.21,103.55,132.09,103.48,131,103.37Zm-2.85-5.94c0,.7,0,1.41,0,2.11,0,.38.16.63.57.62,1.56,0,3.14,0,4.68-.19a2.57,2.57,0,0,0,1.56-4,2.89,2.89,0,0,0-2.31-1.23c-1.28-.06-2.57,0-3.86,0-.46,0-.65.23-.64.68C128.13,96.06,128.12,96.75,128.13,97.43Z"/>
      <path class="cls-2" d="M181.84,67.59v6.23A9.81,9.81,0,0,1,180.63,79a7.44,7.44,0,0,1-3.81,3.2,9.74,9.74,0,0,1-5.23.38,7.55,7.55,0,0,1-3-1.3,8,8,0,0,1-3.41-7.3,7.82,7.82,0,0,1,1.09-3.84,7.91,7.91,0,0,1,4.46-3.52,12.11,12.11,0,0,1,2.22-.51,7,7,0,0,1,4.1,1c.61.32.77.23.77-.49,0-2.06,0-4.11,0-6.17,0-.59.12-.84.77-.8a26,26,0,0,0,2.65,0c.49,0,.63.15.63.62C181.83,62.67,181.84,65.13,181.84,67.59ZM169,74.81c.1.36.26,1,.47,1.66a4.4,4.4,0,0,0,6.4,2.18A4.46,4.46,0,0,0,178,75.34c.33-1.77-.43-4.36-2.19-5.2a6.21,6.21,0,0,0-2.33-.47,3.92,3.92,0,0,0-1.76.3C169.73,70.83,169,72.47,169,74.81Z"/>
      <path class="cls-2" d="M162.18,67.29c0,2.8.09,5.61,0,8.41a7.6,7.6,0,0,1-6.89,6.9,12.65,12.65,0,0,1-3.37-.06A7.31,7.31,0,0,1,147.59,80a8.48,8.48,0,0,1-1.28-9.06,7.43,7.43,0,0,1,4.5-4.26,6.89,6.89,0,0,1,3.89-.59,20.92,20.92,0,0,1,2.71,1l.6.2a2.35,2.35,0,0,0,.19-.66c0-2.11,0-4.23,0-6.35,0-.54.17-.7.69-.67q1.34.06,2.67,0c.53,0,.7.15.69.68,0,2.34,0,4.68,0,7ZM158.54,74a13.1,13.1,0,0,0-.7-2.12,3.43,3.43,0,0,0-2.62-2,14.8,14.8,0,0,0-2.21,0,3,3,0,0,0-2.46,1.32A5.09,5.09,0,0,0,150.1,77a4.42,4.42,0,0,0,6.21,1.58C157.83,77.63,158.45,76.18,158.54,74Z"/>
      <path class="cls-2" d="M123.81,82.35c.46-1.09.85-2,1.24-3,.82-2,1.64-4,2.47-5.94.46-1.1,1-2.18,1.41-3.27.68-1.61,1.32-3.23,2-4.84.54-1.28,1.1-2.54,1.68-3.8a.68.68,0,0,1,.49-.31c.93,0,1.86,0,2.78,0,.71,0,.72.7.9,1.13.59,1.39,1.09,2.81,1.62,4.22.6,1.57,1.18,3.16,1.78,4.73.68,1.78,1.39,3.55,2.07,5.32.46,1.2.89,2.41,1.34,3.62.25.67.52,1.34.8,2.09-.25,0-.44,0-.62,0-1.15,0-2.3,0-3.45,0a.6.6,0,0,1-.68-.51c-.38-1.14-.79-2.27-1.17-3.42a.8.8,0,0,0-.9-.61c-2.32,0-4.63,0-6.95,0a.81.81,0,0,0-.91.61c-.37,1.12-.79,2.22-1.17,3.34a.72.72,0,0,1-.81.59c-1-.05-2.1,0-3.15,0Zm10.31-7.77c.75,0,1.49,0,2.24,0,.55,0,.71-.2.53-.7q-1.12-3.3-2.3-6.58c-.06-.16-.24-.27-.37-.4a1.62,1.62,0,0,0-.35.44c-.33.94-.62,1.9-1,2.84-.44,1.18-.93,2.34-1.4,3.51-.31.8-.24.89.63.89C132.8,74.59,133.46,74.58,134.12,74.58Z"/>
      <path class="cls-2" d="M196.53,96.59a6.11,6.11,0,0,1,0,1.14,9.61,9.61,0,0,1-2.83,5.74c-.58.51-.5.83-.17,1.39,1.4,2.38,2.74,4.78,4.1,7.18.08.13.14.28.26.53h-2.1a7.68,7.68,0,0,0-1.44,0c-.82.16-1.14-.3-1.47-.9-1-1.86-2-3.7-3-5.56a.78.78,0,0,0-.81-.47c-.67,0-1.34,0-2,0s-.81.1-.82.8c0,1.82,0,3.63,0,5.45,0,.5-.16.67-.66.65-.93,0-1.86,0-2.78,0-.44,0-.61-.12-.61-.58q0-10.83,0-21.66c0-.46.17-.59.6-.58.91,0,1.82,0,2.73,0,.61,0,.73.22.72.77,0,3.53,0,7.06,0,10.59,0,1.09,0,1.12,1.12,1.07a6.24,6.24,0,0,0,2.13-.3c2.07-.86,2.82-2.68,3.1-4.74.06-.44.19-.58.63-.57C194.28,96.6,195.39,96.59,196.53,96.59Z"/>
      <path class="cls-2" d="M209.35,82.35h-4.1c-.45,0-.62-.28-.81-.61l-3.31-5.88a.77.77,0,0,0-.84-.43c-.7,0-1.4.08-2.11.09-.5,0-.67.25-.67.72,0,1.83,0,3.66,0,5.5,0,.48-.11.64-.59.62-.95,0-1.9,0-2.84,0-.45,0-.6-.16-.6-.6,0-1.87,0-3.75,0-5.62V60.41c0-.81,0-.81.79-.81s1.85,0,2.78,0c.34,0,.45.11.45.46,0,3.63,0,7.26,0,10.88,0,1.16.07,1.24,1.24,1.22,2.71-.05,4.33-1.68,5-4.16.12-.47.08-1.09.38-1.35s.88,0,1.34,0c.64,0,1.29,0,1.93,0,.46,0,.6.08.57.55a9.22,9.22,0,0,1-2.82,6.1c-.72.71-.76.72-.25,1.59,1,1.73,2.08,3.44,3.11,5.16C208.45,80.72,208.87,81.49,209.35,82.35Z"/>
      <path class="cls-2" d="M159.47,112.56H156c-.39,0-.36-.27-.39-.54s-.11-.61-.16-.92c-.26.17-.53.31-.77.5a6.65,6.65,0,0,1-4.86,1.23,7.27,7.27,0,0,1-6.21-4.09,8.91,8.91,0,0,1-.73-5.87A7.83,7.83,0,0,1,148,97a8.62,8.62,0,0,1,4.9-.48A7.83,7.83,0,0,1,157.51,99a7.1,7.1,0,0,1,2,4.45c.15,2.92.07,5.84.09,8.77A1.7,1.7,0,0,1,159.47,112.56Zm-12.93-8a15.36,15.36,0,0,0,.63,2.23,4.1,4.1,0,0,0,3.46,2.57,4.28,4.28,0,0,0,4.5-2.26,5.29,5.29,0,0,0,.47-4,4.49,4.49,0,0,0-6.18-3A4.78,4.78,0,0,0,146.54,104.61Z"/>
      <path class="cls-2" d="M218.14,82.67a8.28,8.28,0,1,1,8.42-8.25A8.14,8.14,0,0,1,218.14,82.67Zm4.52-8.31a4.31,4.31,0,0,0-2.45-4.29,5.27,5.27,0,0,0-2.93-.31,3.49,3.49,0,0,0-2.55,1.41,5.39,5.39,0,0,0-.54,5.62,4.46,4.46,0,0,0,6.46,1.74A4.52,4.52,0,0,0,222.66,74.36Z"/>
      <path class="cls-2" d="M178.46,107.38c0,1.51,0,3,0,4.54,0,.49-.15.68-.66.66-.92,0-1.85,0-2.78,0-.5,0-.61-.18-.61-.63,0-2.79.05-5.57,0-8.35a4.66,4.66,0,0,0-.62-2.16,3.6,3.6,0,0,0-5.79-.18,3.65,3.65,0,0,0-.74,2.24c0,2.79,0,5.57,0,8.35,0,.54-.14.76-.71.73-.95,0-1.9,0-2.85,0-.41,0-.57-.13-.56-.56,0-2.88-.05-5.76,0-8.65A6.8,6.8,0,0,1,165.59,98a7.84,7.84,0,0,1,4.7-1.64,8.08,8.08,0,0,1,6,1.81,6.12,6.12,0,0,1,2.11,4.21c.12,1.67,0,3.35,0,5Z"/>
      <path class="cls-2" d="M189.54,66.58V82.34c-1.24,0-2.46,0-3.68,0-.1,0-.25-.18-.29-.3a1.29,1.29,0,0,1,0-.48V67.34c0-.81,0-.79.8-.77C187.38,66.59,188.43,66.58,189.54,66.58Z"/>
      <path class="cls-2" d="M189.53,63.72c-1.22,0-2.39,0-3.55,0a.6.6,0,0,1-.42-.41c0-1.07,0-2.14,0-3.21,0-.31.11-.49.46-.48h3.53Z"/>
    </g>
    <g>
      <path class="cls-3" d="M399.17,111.77c0-.19,0-.37,0-.56V78.32c0-.57,0-.57.58-.57h9.37c.54,0,.54,0,.54.53v32.89c0,.2,0,.4,0,.6Z"/>
      <g>
        <path class="cls-4" d="M358.19,61.73c0,.16,0,.32,0,.49v49.06c0,.17,0,.33,0,.49H347.61v-50Z"/>
        <path class="cls-4" d="M382,111.77c0-.16,0-.32,0-.48V62.21c0-.16,0-.32,0-.48h10.5c0,.13,0,.27,0,.41v49.22c0,.14,0,.27,0,.41Z"/>
        <path class="cls-4" d="M375.35,61.73V95.78l-.46,0h-9.64c-.4,0-.48-.12-.48-.49q0-16.51,0-33c0-.19,0-.38,0-.56Z"/>
        <path class="cls-4" d="M416.63,111.77v-34l.47,0h9.63c.4,0,.48.12.48.49q0,16.51,0,33c0,.19,0,.37,0,.56Z"/>
        <path class="cls-4" d="M444.38,71.71l-.57,0H416.63v-10h27.75Z"/>
        <path class="cls-4" d="M409.68,61.73c0,.13,0,.27,0,.41,0,3,0,6,0,9.07,0,.38-.11.49-.49.48H399.17v-10Z"/>
      </g>
    </g>
    <g>
      <path class="cls-2" d="M663.6,123.51H564.29v-2.86H663.6Z"/>
      <path class="cls-2" d="M654.48,64.18l-4.66-1.26-22.76-6.2c-4.34-1.18-8.69-2.37-13-3.53a1.79,1.79,0,0,0-.89,0l-28,8-10.94,3.11-.33.08c0-1,0-1.92,0-2.87,0-.08.17-.21.28-.24l6.22-1.82,33.1-9.69a1.77,1.77,0,0,1,1,0L654,61c.34.1.48.22.47.6C654.45,62.44,654.48,63.29,654.48,64.18Z"/>
      <path class="cls-2" d="M659.08,115.06v2.82H568.87v-2.82Z"/>
      <path class="cls-2" d="M654.65,67.63v2.82H574V67.63Z"/>
      <path class="cls-2" d="M574,112.1v-2.81h80.61v2.81Z"/>
      <path class="cls-2" d="M645,64.38H637.1a4.68,4.68,0,0,1-1-.23l-21.46-5.81a1.55,1.55,0,0,0-.71,0l-22,5.78a1.48,1.48,0,0,1-.42.07l-8.12.19-.16-.05,1.58-.46,29.13-8.36a1.68,1.68,0,0,1,.89,0Q629.47,59.75,644.1,64l.91.28Z"/>
      <path class="cls-2" d="M596.32,91.61V72.48h1v34.2h-1.51l-2.22-20.22h-.08v20.22h-1.23V72.49H594l2.28,19.13Z"/>
      <path class="cls-2" d="M650.1,89.52v14.89a2.38,2.38,0,0,1-1.76,2.48,2.71,2.71,0,0,1-3.53-2.65c0-9.87,0-19.74,0-29.61a2.46,2.46,0,0,1,1.39-2.38,2.73,2.73,0,0,1,2.81.14,2.36,2.36,0,0,1,1.07,2.13c0,2,0,4,0,6Zm-1.53,0q0-7.45,0-14.92c0-.79-.31-1.13-1-1.14s-1.09.38-1.11,1.14v29.89a1,1,0,0,0,1.09,1.06c.7,0,1-.33,1-1.07v-15Z"/>
      <path class="cls-2" d="M579,72.47h1.62V103c0,.4,0,.81,0,1.21a1,1,0,0,0,.8,1,1,1,0,0,0,1-.92,6.06,6.06,0,0,0,0-.85V72.49h1.43v.43q0,15.31,0,30.63a6.9,6.9,0,0,1-.22,1.76,2,2,0,0,1-2.16,1.6,2.2,2.2,0,0,1-2.25-1.52,6.43,6.43,0,0,1-.24-1.75c0-6.38,0-12.75,0-19.13v-12Z"/>
      <path class="cls-2" d="M618.09,95.69h1.72v.47c0,2.54,0,5.08,0,7.62a3.36,3.36,0,0,0,.16,1,.64.64,0,0,0,1.23,0,2.28,2.28,0,0,0,.13-.68c0-2,0-4,0-6a22,22,0,0,0-.9-5.93c-.78-3.14-1.54-6.28-2.25-9.44a14.71,14.71,0,0,1-.24-2.82c-.05-1.7-.08-3.39,0-5.09a3.23,3.23,0,0,1,.48-1.49,2.3,2.3,0,0,1,2.71-1,2.21,2.21,0,0,1,1.84,2c0,.5.12,1,.13,1.5,0,2.06,0,4.12,0,6.19,0,.1,0,.2,0,.32h-1.72c0-.13,0-.27,0-.41,0-2.3,0-4.61-.06-6.92a2.84,2.84,0,0,0-.1-.76.5.5,0,0,0-.59-.4,1.28,1.28,0,0,0-.6.38.84.84,0,0,0-.13.48A61.22,61.22,0,0,0,620,82.1a34.35,34.35,0,0,0,1.14,5.19c.54,2,1.17,4,1.61,6.11a23.35,23.35,0,0,1,.42,4.09c.07,2.15,0,4.3,0,6.45a2.56,2.56,0,0,1-1.8,2.62,4.16,4.16,0,0,1-1.57.1,2.11,2.11,0,0,1-1.79-2.39c0-2.76,0-5.52,0-8.28C618.06,95.9,618.08,95.81,618.09,95.69Z"/>
      <path class="cls-2" d="M636.28,82.41h-1.5V74.78c0-.16,0-.31,0-.47,0-.64-.26-.89-.87-.88s-.86.28-.89.89v30a3,3,0,0,0,0,.42.91.91,0,0,0,1.47.65,1.1,1.1,0,0,0,.27-.76c0-1.32,0-2.65,0-4V95.56h1.51V96c0,2.79,0,5.57,0,8.36a4.9,4.9,0,0,1,0,.77,2.21,2.21,0,0,1-2.39,1.88,2.37,2.37,0,0,1-2.4-2,3.67,3.67,0,0,1-.05-.66V74.67a2.53,2.53,0,0,1,1.18-2.38,2.37,2.37,0,0,1,3.69,2C636.31,77,636.28,79.66,636.28,82.41Z"/>
      <path class="cls-2" d="M605.57,72.48h4.24v1.45H607.6V87.87h2.21v1.2H607.6v16.21h2.53v1.41h-4.56Z"/>
    </g>
    <g>
      <path class="cls-2" d="M825.47,48.36c.25,0,.51.09.76.11a37.2,37.2,0,0,1,35.65,39.37,37.24,37.24,0,0,1-28,33.92,37.43,37.43,0,0,1-32-6.67,36.64,36.64,0,0,1-13.71-22,36,36,0,0,1-.69-9.66,37.26,37.26,0,0,1,23.84-32.58A38.54,38.54,0,0,1,820,48.7c1-.13,2-.15,3-.23.31,0,.61-.07.91-.11Zm-.83,48.26h33.05a.69.69,0,0,0,.79-.6,35.54,35.54,0,0,0,1.45-12.84,34.66,34.66,0,0,0-1.36-7.57c-.29-1-.05-.89-1.2-.89H792.83c-.41,0-.81,0-1.22,0s-.58.13-.7.53a35.57,35.57,0,0,0-1.46,12.89A37.21,37.21,0,0,0,790.88,96a.74.74,0,0,0,.86.65Q808.18,96.6,824.64,96.62Zm1,2c0,.2,0,.38,0,.55,0,3.1,0,6.19,0,9.28,0,.43.11.6.57.6,3.81,0,7.61,0,11.42,0a.75.75,0,0,0,.71-.39,31.77,31.77,0,0,0,3.92-8.83c.11-.38.18-.78.28-1.21ZM806.71,72.77h16.92c0-.15,0-.28,0-.4,0-3.18,0-6.35,0-9.52,0-.45-.2-.5-.56-.5H811.69a.75.75,0,0,0-.71.38,31.47,31.47,0,0,0-3.29,6.75C807.33,70.54,807.05,71.63,806.71,72.77Zm35.38,0a1,1,0,0,0,0-.21,2,2,0,0,0,0-.24A32,32,0,0,0,838,62.7a.71.71,0,0,0-.68-.35H826.15c-.45,0-.58.15-.58.59q0,4.64,0,9.28c0,.46.13.59.6.59h15.92ZM823.63,98.62H807c0,.19.06.33.09.47a31,31,0,0,0,4.09,9.58.72.72,0,0,0,.68.36q5.61,0,11.22,0c.41,0,.55-.12.55-.55,0-3.13,0-6.25,0-9.37C823.66,99,823.64,98.79,823.63,98.62ZM840.08,62.4l.4.73A32.28,32.28,0,0,1,844,72.32a.52.52,0,0,0,.61.49h12.44l.47,0a.88.88,0,0,0,0-.2c0-.12-.08-.24-.13-.36a34.85,34.85,0,0,0-5.84-9.51,1.15,1.15,0,0,0-.79-.34q-5,0-10,0C840.53,62.36,840.36,62.38,840.08,62.4Zm-31,46.58a1.09,1.09,0,0,0-.06-.23l-.3-.55a31.74,31.74,0,0,1-3.55-9.14.51.51,0,0,0-.61-.49H792.32l-.43,0a1.07,1.07,0,0,0,0,.18,3.39,3.39,0,0,0,.15.41,35.32,35.32,0,0,0,5.79,9.43,1,1,0,0,0,.87.41h9.77C808.66,109,808.84,109,809.08,109Zm31.26,0c.25,0,.42.07.58.07,3.28,0,6.55,0,9.82,0a1.15,1.15,0,0,0,.74-.33,34.84,34.84,0,0,0,5.9-9.59c.06-.14.1-.3.17-.52H857c-4,0-8,0-11.94,0-.46,0-.61.16-.7.57a32,32,0,0,1-3.56,9.08Zm-48.63-36.2c.25,0,.35,0,.44,0H804.4c.35,0,.43-.17.49-.45a31.9,31.9,0,0,1,3.67-9.3c.11-.19.21-.38.35-.65a5,5,0,0,0-.59,0q-4.86,0-9.72,0a1.18,1.18,0,0,0-.78.36,32,32,0,0,0-4.2,6.11C793,70.09,792.38,71.38,791.71,72.75ZM849.4,60.41a35.13,35.13,0,0,0-9.28-6.54,32.63,32.63,0,0,0-10.66-3.16.88.88,0,0,0,.25.31,41,41,0,0,1,8.84,9.08.78.78,0,0,0,.72.36h9.52Zm-29.58,60.25.07-.13c-.07-.06-.14-.13-.21-.18a42.12,42.12,0,0,1-9-9.1.89.89,0,0,0-.63-.31c-3.16,0-6.32,0-9.47,0-.13,0-.26,0-.51,0A35.33,35.33,0,0,0,819.82,120.66ZM800,60.4c.26,0,.37.05.47.05,3.15,0,6.29,0,9.43,0a.89.89,0,0,0,.61-.36,42.38,42.38,0,0,1,9-9c.12-.09.23-.2.35-.3l-.08-.11A35.45,35.45,0,0,0,800,60.4Zm29.62,60.1,0,.14a35.19,35.19,0,0,0,19.62-9.59l-.06-.12h-9.66a.85.85,0,0,0-.79.41,39.82,39.82,0,0,1-7,7.45C831,119.37,830.31,119.93,829.59,120.5Zm-4,.3a39.72,39.72,0,0,0,11-9.84h-11Zm-2-70.22a40.52,40.52,0,0,0-11,9.82h11Zm2,0a5.31,5.31,0,0,0-.06.53c0,2.94,0,5.89,0,8.84,0,.41.12.55.55.55,3.24,0,6.48,0,9.72,0l.59,0A40,40,0,0,0,825.64,50.54Zm-2,70.16V111h-10.8A40,40,0,0,0,823.63,120.7Z"/>
      <path class="cls-2" d="M811.44,77.42c-.17.47-.08,1-.81,1.1-.13,0-.35.29-.35.45,0,2.47,0,5,.08,7.47a4,4,0,0,0,.26-.35c1-1.66,2.08-3.32,3.09-5a2.83,2.83,0,0,0,.08-2.21c0-.18-.38-.3-.6-.41a1.4,1.4,0,0,0-.41-.06c0-.07,0-.1,0-.12.07-1,.07-1,1-1H818c.19,0,.38,0,.56,0,.07.83,0,.92-.71,1.11a.8.8,0,0,0-.39.36,1.12,1.12,0,0,0-.09.52c0,2.19,0,4.37,0,6.56,0,.09,0,.19,0,.41a4.62,4.62,0,0,0,.31-.37l3.78-6.17a2.1,2.1,0,0,0,.13-.26c.35-.78.12-1.12-.73-1.14h-.29c-.7,0-.85-.22-.56-.86a.38.38,0,0,1,.29-.18c1.56,0,3.11,0,4.67,0a.49.49,0,0,1,.17.06c0,.76-.08.84-.72,1.12a2.15,2.15,0,0,0-.9.82q-3.75,6.12-7.47,12.28c-.42.69-.83,1.39-1.28,2.06a.81.81,0,0,1-.59.34c-.32,0-.32-.34-.32-.61,0-3,0-6.09,0-9.14a.94.94,0,0,0-.12-.54c-.09.14-.19.28-.27.42l-5.67,9.35c-.15.24-.25.68-.63.51-.16-.07-.25-.48-.25-.74,0-4.08,0-8.17,0-12.25,0-.53,0-1.07-.06-1.6,0-.69-.2-.87-.86-1-.21,0-.49,0-.39-.35s-.1-.74.41-.74c1.72,0,3.44,0,5.15,0C811.29,77.34,811.33,77.38,811.44,77.42Z"/>
      <path class="cls-2" d="M791.62,93.74l.84-3.08c.22-.81.47-1.61.66-2.43.12-.49.34-.7.77-.54a11.83,11.83,0,0,0,.18,2.26,3,3,0,0,0,5,1.62,2.35,2.35,0,0,0,.22-3.55c-.88-.9-1.78-1.78-2.64-2.71a10.8,10.8,0,0,1-1.23-1.62,4.38,4.38,0,0,1,.15-4.9A4.44,4.44,0,0,1,800,76.71a12.63,12.63,0,0,1,1.84.58,10.89,10.89,0,0,0,1.71.28,1,1,0,0,0,1-.44c.11-.15.43-.13.78-.22-.3,1-.56,1.91-.82,2.78-.19.65-.42,1.3-.57,2-.1.49-.35.6-.76.47-.2-.7-.34-1.39-.59-2.05a2.52,2.52,0,0,0-1.76-1.73,2.19,2.19,0,0,0-2.77,2,2.8,2.8,0,0,0,.62,2.09c.53.64,1.11,1.25,1.69,1.87s1,1,1.51,1.58a4.73,4.73,0,0,1-2.15,7.72,6.09,6.09,0,0,1-4.27-.1,4,4,0,0,0-2.38-.18,2.66,2.66,0,0,0-.52.23l-.77.33Z"/>
      <path class="cls-2" d="M837.46,92.71c-.1.36-.16.66-.27.94a.37.37,0,0,1-.29.16h-6.66a.35.35,0,0,1-.13,0c0-.78.14-1,.84-1.12a1.5,1.5,0,0,0,1.16-1.11q1.54-5.73,3.07-11.46c.31-1.19,0-1.55-1.23-1.61-.7,0-.86-.31-.5-.92a.63.63,0,0,1,.49-.2h10.59c.12,0,.25,0,.43,0-.13.53-.26,1-.39,1.52-.22.83-.45,1.65-.66,2.48a.44.44,0,0,1-.53.41c-.38,0-.27-.27-.29-.48s-.05-.68-.11-1a1.73,1.73,0,0,0-1.73-1.43c-.55,0-1.1,0-1.65,0a.77.77,0,0,0-.75.65c-.27,1-.52,1.9-.77,2.85-.15.54-.27,1.09-.4,1.63a2.35,2.35,0,0,0,2.8-1.17c.24-.47.5-.46.92-.21-.2.83-.4,1.68-.61,2.52-.16.66-.33,1.31-.47,2-.08.34-.31.3-.55.32s-.4-.08-.41-.35a3.61,3.61,0,0,0-.07-.87c-.06-.22-.19-.55-.36-.6a5.73,5.73,0,0,0-1.43-.19c-.09,0-.25.19-.29.32-.55,1.91-1.1,3.82-1.62,5.73-.2.72,0,1,.74,1.18a4.51,4.51,0,0,0,.53.07C837,92.72,837.21,92.71,837.46,92.71Z"/>
      <path class="cls-2" d="M855.2,81.71c-.05-.5-.05-1-.14-1.43a1.94,1.94,0,0,0-2.31-1.41c-.13,0-.25.27-.29.43-.69,2.57-1.36,5.15-2,7.72-.36,1.39-.67,2.8-1.11,4.17-.35,1.07.15,1.6,1.13,1.66.18.7,0,1-.67,1h-6.91A5.16,5.16,0,0,1,843,93a.5.5,0,0,1,.36-.22,8.52,8.52,0,0,1,.87-.08,1.65,1.65,0,0,0,1.52-1.4c.83-3.14,1.68-6.27,2.52-9.4.25-.92.49-1.84.74-2.77a1,1,0,0,0,0-.17,3.17,3.17,0,0,0-3.48,2.23c-.21.7-.21.7-1,.58.09-.37.18-.74.28-1.1.26-1,.53-1.9.79-2.85.07-.24.13-.44.47-.44H856.9a.59.59,0,0,1,.14,0c0,.12,0,.26-.06.39-.3,1.15-.61,2.31-.92,3.46C855.9,81.83,855.86,81.85,855.2,81.71Z"/>
      <path class="cls-2" d="M820.91,93.82a6,6,0,0,1,.14-.88c0-.1.23-.18.36-.22.33-.08.68-.1,1-.2a1.46,1.46,0,0,0,1.07-1.13c1-3.94,2.11-7.86,3.17-11.79.21-.76.13-.89-.62-1.18-.1,0-.24-.22-.22-.3a3.57,3.57,0,0,1,.35-.77s.21,0,.33,0h5.59a4.38,4.38,0,0,1,.51,0c0,.9-.09,1-.9,1.09a1.51,1.51,0,0,0-1.58,1.3q-1.51,5.53-3,11.08c-.08.31-.2.61-.27.93-.15.64,0,.86.67.94l.31.05s0,0,0,.07c-.14,1-.14,1-1.14,1h-5.77Z"/>
      <path class="cls-2" d="M828.08,93.21a6.36,6.36,0,0,1,.68-1.14c.34-.37.76-.24,1,.22a1.48,1.48,0,0,1-.54,1.71c-.16.09-.48.13-.57,0A4.25,4.25,0,0,1,828.08,93.21Z"/>
      <path class="cls-2" d="M818.36,92.84a5.41,5.41,0,0,1-.58,1.06.55.55,0,0,1-1-.28,2.62,2.62,0,0,1,.17-1.2.71.71,0,0,1,.82-.53C818.19,92,818.27,92.38,818.36,92.84Z"/>
      <path class="cls-2" d="M853.1,92.82a6.69,6.69,0,0,1-.68,1.16c-.33.36-.78.21-1-.24a1.49,1.49,0,0,1,.51-1.67.69.69,0,0,1,.62,0A3.16,3.16,0,0,1,853.1,92.82Z"/>
      <path class="cls-2" d="M839.75,92.84a5.34,5.34,0,0,1-.55,1,.7.7,0,0,1-.63.2.79.79,0,0,1-.4-.58,2.27,2.27,0,0,1,.18-1,.77.77,0,0,1,.84-.58C839.65,92,839.65,92.41,839.75,92.84Z"/>
      <path class="cls-2" d="M804.38,92.78A7,7,0,0,1,803.7,94a.51.51,0,0,1-.94-.26,2.92,2.92,0,0,1,.15-1.24c.12-.34.44-.67.82-.48S804.15,92.47,804.38,92.78Z"/>
    </g>
    <g>
      <path class="cls-2" d="M191.88,220.64h36.58a4.66,4.66,0,0,1,4.93,4.85q0,9.75,0,19.52a4.6,4.6,0,0,1-4.72,4.67q-12.52,0-25,0H145.42c-7.21,0-14.42-.06-21.63,0a5,5,0,0,1-5.23-5.24c.09-6.08,0-12.15,0-18.22a9.8,9.8,0,0,1,.11-1.88,4.67,4.67,0,0,1,4.71-3.74h36.15c.5,0,.69-.11.81-.64a16.07,16.07,0,0,1,31.33,0C191.75,220.17,191.81,220.37,191.88,220.64ZM176,249.22c17.42,0,34.84,0,52.26,0a4.44,4.44,0,0,0,4.71-4.68q-.12-9.36,0-18.73a4.44,4.44,0,0,0-4.73-4.72c-11.88.06-23.76,0-35.64,0-1.07,0-1.07,0-1.3-1a15.59,15.59,0,0,0-30.43.12c-.16.75-.43.94-1.17.94q-18,0-36.07,0a4.16,4.16,0,0,0-4.54,4.5q0,9.56,0,19.1a6.22,6.22,0,0,0,.14,1.36,4.21,4.21,0,0,0,4.43,3.11Z"/>
      <path class="cls-2" d="M176,247.15h-51.9a2.56,2.56,0,0,1-2.33-.9,3.23,3.23,0,0,1-.58-1.66c0-6.27,0-12.54,0-18.8a2.44,2.44,0,0,1,2.54-2.58H228a2.49,2.49,0,0,1,2.82,2.8v18.22c0,2-.91,2.91-2.94,2.91Zm-11.47-12.07v6.68c0,1.71,0,1.69,1.74,1.64.52,0,.69-.2.69-.73,0-5,0-10,0-15,0-.48-.13-.72-.65-.68a8.18,8.18,0,0,1-1.31,0c-.55-.06-.77.19-.87.7-.24,1.14-.51,2.26-.76,3.39-.34,1.55-.67,3.09-1,4.5-.49-2.2-1-4.51-1.51-6.82-.4-1.79-.41-1.76-2.25-1.78-.65,0-.81.21-.81.83,0,4.65,0,9.29,0,13.94,0,1.76,0,1.75,1.77,1.68.49,0,.67-.18.66-.69,0-1.33,0-2.66,0-4V235l2,8.62.27,0C163.14,240.76,163.82,237.89,164.48,235.08Zm39,8.29a3.71,3.71,0,0,0-.07-.48c-.46-2.32-.94-4.64-1.39-7a.91.91,0,0,1,.07-.66c1.45-1.71,1.49-3.66,1-5.69a3.06,3.06,0,0,0-2.81-2.54c-1.08-.11-2.18,0-3.26-.09-.73,0-.88.24-.88.91,0,4.53,0,9,0,13.57,0,2,0,2,2.06,2,.49,0,.69-.16.68-.68,0-1.33,0-2.66,0-4,0-.7,0-1.4,0-2.1,0-.13.15-.26.24-.39a3.39,3.39,0,0,1,.31.34,1.08,1.08,0,0,1,.05.28c.35,1.95.68,3.9,1.06,5.84,0,.24.26.62.43.64C201.76,243.4,202.57,243.37,203.44,243.37Zm-47,0c0-.38,0-.67-.07-.94q-1.07-6.81-2.12-13.61C154,227,154,227,152.14,227c-1.13,0-1.11,0-1.29,1.12-.61,3.89-1.24,7.78-1.85,11.67-.19,1.16-.35,2.32-.55,3.64h1.67c1.12,0,1.12,0,1.22-1.09,0-.15,0-.29,0-.44.09-.68.19-1.36.28-2.05a8.74,8.74,0,0,0,.91,0c.64-.09.91.14.92.82a16.23,16.23,0,0,0,.28,2.3.64.64,0,0,0,.43.43C154.92,243.4,155.66,243.37,156.48,243.37Zm-26.81-12.05,1.13-.22c1.6-.33,1.6-.34,1.1-1.92a3.32,3.32,0,0,0-6.47.17,6.11,6.11,0,0,0,1.37,5.49c.59.73,1.23,1.42,1.84,2.15a4,4,0,0,1,.94,3.17c-.05.4-.11.84-.67.88s-.77-.35-.88-.79-.21-1-.31-1.57a7.62,7.62,0,0,0-.76.07c-2.1.37-2.19.55-1.4,2.58a3.23,3.23,0,0,0,3.62,2.26,3.32,3.32,0,0,0,3-2.64,6.65,6.65,0,0,0-1.36-5.86c-.63-.79-1.33-1.53-2-2.29a3.15,3.15,0,0,1-.81-2.75c.05-.3.38-.54.58-.81.25.22.61.39.74.66A6.41,6.41,0,0,1,129.67,231.32Zm15.62,0c.32-.05.6-.09.88-.15,1.86-.41,2-.61,1.19-2.41a3.32,3.32,0,0,0-6.24.32,6,6,0,0,0,1.08,5.47c.61.81,1.3,1.56,2,2.33a3.94,3.94,0,0,1,1,3.28,1.25,1.25,0,0,1-.57.85c-.52.21-.8-.23-.92-.67s-.23-1.07-.36-1.69c-.73.13-1.41.26-2.1.35-.42.06-.53.24-.43.64s.17,1.05.34,1.55a3.28,3.28,0,0,0,3.73,2.41,3.44,3.44,0,0,0,3-3,7,7,0,0,0-2-6.11,26.65,26.65,0,0,1-1.82-2.16,2.65,2.65,0,0,1-.45-2.4c.08-.27.39-.65.59-.65a1.07,1.07,0,0,1,.7.58A8.45,8.45,0,0,1,145.29,231.31Zm39.62,0c.29,0,.56-.07.81-.12,1.89-.41,2-.71,1.22-2.51a3.31,3.31,0,0,0-6.16.31,5.86,5.86,0,0,0,1,5.54c.65.87,1.4,1.67,2.1,2.5a4.07,4.07,0,0,1,.92,3.11c0,.43-.1.84-.64.91s-.78-.3-.9-.76-.22-1-.34-1.6c-.34,0-.65.06-.95.12-1.91.36-1.91.37-1.31,2.23a3.33,3.33,0,0,0,3.78,2.56,3.47,3.47,0,0,0,3.06-3.11,7.09,7.09,0,0,0-2.13-6.13c-.56-.63-1.13-1.26-1.63-1.94a2.83,2.83,0,0,1-.49-2.54c.07-.24.38-.58.59-.58a.92.92,0,0,1,.66.51A9.27,9.27,0,0,1,184.91,231.3Zm-13.24,2.16v-2.3c0-1.56,0-1.54,1.57-1.56,2.26,0,1.86.42,1.91-2.06,0-.45-.2-.58-.62-.58-1.67,0-3.34,0-5,0-.46,0-.65.16-.65.63,0,.9,0,1.79,0,2.69v12.26c0,.42,0,.85.59.85,1.79,0,3.58,0,5.37,0,.17,0,.48-.17.49-.28,0-.75,0-1.51,0-2.35h-3.61V236h.72c1.94,0,1.94,0,1.85-2V234c0-.38-.15-.51-.52-.5Zm-35.24-3.86H138c1.89,0,1.87,0,1.87-1.88,0-.56-.16-.78-.74-.77q-2.43,0-4.86,0c-.59,0-.74.21-.73.77,0,5,0,10,0,14.94,0,.62.25.74.77.73h4.06c1.65,0,1.65,0,1.65-1.66,0-1,0-1-1-1s-1.76,0-2.61,0V236h.71c1.9,0,1.89,0,1.87-1.92,0-.49-.13-.7-.65-.67s-1.29,0-2,0Zm71.4,3.86v-2.29c0-1.57,0-1.55,1.55-1.57,2.24,0,1.88.42,1.92-2,0-.51-.19-.68-.68-.68-1.65,0-3.29,0-4.93,0-.53,0-.72.15-.72.7q0,7.51,0,15c0,.55.2.72.71.71h3.92c1.89,0,1.87,0,1.87-1.89,0-.58-.2-.76-.76-.74-.93,0-1.87,0-2.82,0V236h.72c1.95,0,1.95,0,1.86-2a.2.2,0,0,1,0-.07c0-.38-.13-.52-.51-.51ZM215.7,236h.87c2,0,2,0,1.82-2,0,0,0,0,0-.07,0-.4-.19-.54-.58-.53-.54,0-1.07,0-1.6,0-.38,0-.52-.14-.51-.51,0-.54,0-1.07,0-1.6,0-1.75,0-1.73,1.74-1.75,2.16,0,1.79.34,1.85-1.91,0-.58-.21-.75-.77-.74-1.57,0-3.14.05-4.71,0-.68,0-.85.21-.85.87,0,4.91,0,9.82,0,14.73v.77c.38,0,.69.07,1,.07,1.18,0,2.37,0,3.55,0,2.27,0,1.86.37,1.91-2,0-.48-.18-.65-.64-.64-.85,0-1.69,0-2.54,0-.19,0-.53-.23-.53-.36C215.68,239,215.7,237.54,215.7,236Zm-25.68.48v5.14c0,1.73,0,1.73,1.75,1.73,1.09,0,1.09,0,1.09-1.07v-12c0-.39-.07-.75.55-.77,1.64-.07,1.64-.09,1.62-1.74v-.15c.07-.56-.17-.76-.74-.75-1.79,0-3.58,0-5.36,0-1.09,0-1.09,0-1.09,1.11,0,1.5,0,1.53,1.47,1.52.59,0,.72.22.72.76C190,232.41,190,234.46,190,236.52Zm32.16-6.92v.78c0,3.77,0,7.55,0,11.32,0,1.89-.3,1.67,1.7,1.69,1.08,0,1.08,0,1.08-1.06v-12c0-.4-.06-.75.55-.77,1.63-.06,1.63-.09,1.62-1.74v-.15c.09-.58-.17-.76-.73-.74-1.5,0-3,0-4.5,0-2.09,0-2.08,0-1.9,2.08,0,.38.17.57.57.56Zm5.6-5.7v0H123.49v0Zm0,22.62v0H123.66v0Zm2-1.8a1.43,1.43,0,0,0-1.39-1.46,1.47,1.47,0,0,0-1.44,1.43,1.49,1.49,0,0,0,1.4,1.47A1.46,1.46,0,0,0,229.78,244.72Zm-108-17.79h0v17.4h0Z"/>
      <path class="cls-2" d="M176,221.08H164.85c-1.19,0-1.53-.43-1.25-1.58a12.92,12.92,0,0,1,24.79-.33c.05.19.1.38.14.57.17.89-.18,1.33-1.1,1.34H176Zm2.29-7c.39.45.68,1,1.37.47.12-.08.49.19.75.3-.2.2-.38.55-.58.56-.54,0-.54.34-.55.73s.31.48.65.57a.93.93,0,0,1,.6.48.62.62,0,0,1-.23.59,1.29,1.29,0,0,1-.8,0c-.18,0-.32-.26-.51-.43l-.88.61a2,2,0,0,0,2.9.92c1-.62,1-1.73.17-2.93a1.58,1.58,0,0,0-.19-2.41A2,2,0,0,0,178.32,214.09Zm-3.15,3.76-.15-.27,1.35-1.24a1.86,1.86,0,0,0,.53-2.29,1.72,1.72,0,0,0-2.15-.71,1.65,1.65,0,0,0-.92.72c-.08.19.33.59.53.9l.1-.25c.42,0,1.07-.17,1.22,0,.37.5-.14.85-.53,1.15l-.23.18a3.21,3.21,0,0,0-1.21,2.46c0,.18.22.53.35.54,1,0,2,0,2.93,0,.19-1.21.17-1.23-.9-1.24Zm-5.29-3.14.11.24c.74-.09.81.31.78.84,0,.77,0,1.55,0,2.32,0,1.08.08,1.15,1.23.85,0-1.68,0-3.36,0-5.05,0-.2-.17-.56-.25-.56a2.36,2.36,0,0,0-.89.24,1.56,1.56,0,0,0-.45.44C170.22,214.25,170.06,214.48,169.88,214.71Z"/>
      <ellipse class="cls-5" cx="175.63" cy="223.88" rx="73.74" ry="0.03"/>
      <ellipse class="cls-5" cx="175.71" cy="246.5" rx="73.6" ry="0.02"/>
      <path class="cls-5" d="M121.81,226.93v17.4h0v-17.4Z"/>
      <path d="M198.91,229.4c1-.06,1.43.17,1.52,1a10,10,0,0,1-.06,2.5c-.12.83-.54,1-1.46.91Z"/>
      <path d="M153.09,237.26c-.32,0-.51,0-.7,0a4.66,4.66,0,0,1-.49,0l.52-5Z"/>
      <path d="M229,245.42a.84.84,0,0,1-1.31,0c-.42-.4-.34-1,.16-1.58v1.61l.19,0,.23-.32.77.29Z"/>
      <path d="M227.83,243.84a1,1,0,0,1,1.38.33.83.83,0,0,1-.23,1.25l0,0a5.72,5.72,0,0,1,0-.83.57.57,0,0,0-.56-.75l-.65,0Z"/>
    </g>
    <g>
      <path class="cls-2" d="M346.51,257.59l2.55-3,1.1.78a8.22,8.22,0,0,0,5.36,1.64,7.15,7.15,0,0,0,1.58-.32,1.63,1.63,0,0,0,1.2-1.56,1.61,1.61,0,0,0-1.06-1.76c-1.63-.59-3.29-1.13-4.94-1.69-.63-.22-1.27-.41-1.89-.65a5.05,5.05,0,0,1-3.13-4.58c-.17-4.11,2.66-6.21,5.86-6.59A11.79,11.79,0,0,1,361.7,242c.1.07.18.16.32.28-.7,1-1.39,2-2.1,3-.07.09-.39.08-.54,0-.88-.42-1.71-.93-2.61-1.29a5.72,5.72,0,0,0-3.22-.4c-1.2.23-1.88.9-1.9,1.88a1.52,1.52,0,0,0,1.07,1.63c1.27.46,2.56.84,3.83,1.29a25.46,25.46,0,0,1,3.22,1.23c2.36,1.2,3.16,3,2.85,5.74a5.63,5.63,0,0,1-4.61,5.07A12.57,12.57,0,0,1,346.9,258l-.29-.25A1.74,1.74,0,0,1,346.51,257.59Z"/>
      <path class="cls-2" d="M397.12,252.76a8.09,8.09,0,0,1-7.37,8.09,8.53,8.53,0,0,1-6.47-1.64,8.13,8.13,0,0,1,3.52-14.42,8.4,8.4,0,0,1,8.59,2.87A7.46,7.46,0,0,1,397.12,252.76Zm-12.68,0c0,.18,0,.36,0,.53a4.25,4.25,0,0,0,5.11,3.83,4,4,0,0,0,3.21-3.44,4.42,4.42,0,0,0-1.78-4.62,4,4,0,0,0-4.38-.29A4.16,4.16,0,0,0,384.44,252.77Z"/>
      <path class="cls-2" d="M403.39,244.89V247q0,3.21,0,6.42a7.08,7.08,0,0,0,.09,1.13,2.59,2.59,0,0,0,2.75,2.41,2.79,2.79,0,0,0,2.82-2.76c.05-1.74,0-3.49,0-5.24,0-1.2,0-2.41,0-3.61,0-.33.1-.49.46-.48,1.12,0,2.24,0,3.35,0,.37,0,.47.15.47.48,0,2.52,0,5,0,7.56,0,2.32,0,4.64,0,7,0,.53-.14.69-.66.67-1,0-2,0-3,0-.54,0-.69-.19-.65-.69s0-.89,0-1.33l-.13-.06c-.17.17-.35.33-.51.5a5.38,5.38,0,0,1-5.87,1.65,4.39,4.39,0,0,1-3.2-3.34,7.8,7.8,0,0,1-.27-1.92c0-3.27,0-6.55,0-9.82,0-.53.15-.68.67-.66C400.92,244.91,402.11,244.89,403.39,244.89Z"/>
      <path class="cls-2" d="M426.42,258.55l1.82-2.79,1.08.61a6.93,6.93,0,0,0,4.19,1.15,3.35,3.35,0,0,0,1.09-.26,1,1,0,0,0,.15-1.79,8,8,0,0,0-1.51-.7c-1-.38-2.07-.71-3.09-1.11a4,4,0,0,1-3-4,4.6,4.6,0,0,1,2.89-4.46,8.19,8.19,0,0,1,6.21.06c.82.3,1.59.72,2.45,1.12l-1.64,3-.67-.33a7.85,7.85,0,0,0-3.59-1.07,3.14,3.14,0,0,0-1,.17,1,1,0,0,0-.74.9.94.94,0,0,0,.56,1q1,.5,2.07.93c.89.37,1.81.68,2.7,1.07a4,4,0,0,1,2.69,4.13,4.47,4.47,0,0,1-3.09,4.26,10.13,10.13,0,0,1-8.72-1.23C427,259,426.75,258.78,426.42,258.55Z"/>
      <path class="cls-2" d="M376.36,250c-.24-.22-.43-.4-.64-.57a4.06,4.06,0,0,0-6.88,2.83,4.22,4.22,0,0,0,6.8,4.05l.92-.67,2.47,2.43c-1.76,2.5-5.33,3.38-8.48,2.61a7.9,7.9,0,0,1-6-7.44,8.11,8.11,0,0,1,5.15-8.13c3.35-1.22,7.44-.32,9.25,2.09Z"/>
      <path class="cls-2" d="M392.69,193.43l4.46,3.78a9.67,9.67,0,0,1,3,11.25c-.66,1.73-1.47,3.41-2.13,5.14-.44,1.17-.78,2.39-1.11,3.6-.1.38-.24.54-.64.52s-1,0-1.71,0a29.15,29.15,0,0,1,.8-3.13c.69-1.87,1.53-3.69,2.22-5.56a17.87,17.87,0,0,0,1.09-3.82,6.62,6.62,0,0,0-2.32-5.74c-1-1-2.18-1.87-3.29-2.79-.09-.08-.34-.12-.41,0-1.61,1.35-3.44,2.46-4.58,4.3a6.93,6.93,0,0,0-.68,6.41c.71,1.83,1.56,3.6,2.23,5.44.53,1.45.88,3,1.32,4.44.12.4,0,.52-.42.5s-1.16.15-1.52-.1-.29-.9-.47-1.36c-.83-2.12-1.67-4.25-2.52-6.36a14,14,0,0,1-1.24-5,9.34,9.34,0,0,1,3.23-7.15c1.46-1.37,3-2.68,4.45-4Z"/>
      <path class="cls-2" d="M424.17,256.66c0,1,0,2.07,0,3.08a.55.55,0,0,1-.3.4,6.6,6.6,0,0,1-5.83.12,3.15,3.15,0,0,1-1.71-2.88c-.11-1.5-.11-3-.11-4.53,0-3.76,0-7.52,0-11.28,0-.72,0-.72.75-.72,1,0,2,0,3,0,.39,0,.54.13.54.53,0,1,0,1.91,0,2.86,0,.49.2.67.68.66.87,0,1.73,0,2.59,0,.35,0,.48.11.48.47,0,.92,0,1.83,0,2.75,0,.38-.16.51-.51.5-.88,0-1.77,0-2.65,0-.4,0-.59.14-.59.56,0,2.1,0,4.21,0,6.31,0,1.23.69,1.75,1.92,1.58C423,257,423.53,256.8,424.17,256.66Z"/>
      <path class="cls-2" d="M399.18,217.72c.31-1.19.54-2.32.9-3.4a13.11,13.11,0,0,1,4.26-6.36,7,7,0,0,1,11.28,6.46c-.05.42-.18.58-.61.45s-1.1-.08-1.37-.38-.12-.91-.17-1.38a4.69,4.69,0,0,0-2.69-4,4.61,4.61,0,0,0-4.95.5,10.63,10.63,0,0,0-3.72,5.49,19.62,19.62,0,0,0-.56,2.13c-.08.36-.23.53-.62.51S399.86,217.72,399.18,217.72Z"/>
      <path class="cls-2" d="M386.23,217.71a15.56,15.56,0,0,1-1.82,0c-.16,0-.32-.37-.4-.59-.49-1.35-.86-2.75-1.46-4a8,8,0,0,0-3.39-3.81,4.76,4.76,0,0,0-7.1,4.15c0,1.14,0,1.14-1.14,1.4-.9.21-.9.21-1-.69a7,7,0,0,1,5.78-7.55c3.09-.48,5.41.85,7.29,3.15a15.79,15.79,0,0,1,3.22,7.38A5.78,5.78,0,0,1,386.23,217.71Z"/>
      <path class="cls-2" d="M390.86,224.24a12.4,12.4,0,0,1-1.49,4.18c-.43.76-.44.77.12,1.46a10.14,10.14,0,0,0,2.82,2.48.83.83,0,0,0,.95,0,10.23,10.23,0,0,0,3-2.73.77.77,0,0,0,0-1,11.92,11.92,0,0,1-1.61-4.4c.68,0,1.32,0,2,0,.12,0,.28.22.32.36a12,12,0,0,0,1.89,4,.86.86,0,0,1,.07.68A11.23,11.23,0,0,1,393,234.9a.75.75,0,0,1-.51,0,11.5,11.5,0,0,1-5.75-5.3,1,1,0,0,1,.05-1.24,10.36,10.36,0,0,0,1.7-3.58.6.6,0,0,1,.71-.54C389.74,224.27,390.26,224.24,390.86,224.24Z"/>
      <path class="cls-2" d="M392.78,219.93h12.46c.72,0,.72,0,.73.72,0,1.32,0,1.33-1.34,1.33q-9.63,0-19.26,0h-5.18c-.45,0-.63-.11-.62-.6,0-1.46,0-1.45,1.45-1.45Z"/>
    </g>
    <g>
      <path class="cls-2" d="M595,215.09a102,102,0,0,1,16.7.53,20.76,20.76,0,0,1-.78-2c-.29-1-.49-2-.74-2.95-.15-.61-.3-1.23-.48-1.84a1.58,1.58,0,0,0-1.62-1.17c-1.27,0-2.54.11-3.81.18l-.58,0,1.12-2-2.36.24a13.54,13.54,0,0,1,1-1.29,6.33,6.33,0,0,0,1.69-3c.67-2.55,3.49-3.49,5.65-3a7.54,7.54,0,0,1,4,2.74,40.84,40.84,0,0,0,3.17,3c1.29,1.18,2.61,2.32,3.89,3.5a.62.62,0,0,0,.9.11,9.36,9.36,0,0,0,3.69-4.44c.47-1.11.78-2.28,1.19-3.49,1.17.43,2.54,0,3.78.42-.58,1.18-1.11,2.24-1.61,3.31a3.11,3.11,0,0,0-.3,1.14,1,1,0,0,0,.36.69.58.58,0,0,0,.57,0,10.88,10.88,0,0,0,1.77-1.53c.79-.94,1.47-2,2.23-3l3.06,2.45c-.29.19-.54.33-.78.5-.49.34-1,.67-1.44,1-.12.1-.24.4-.18.5a.74.74,0,0,0,.51.29,6.19,6.19,0,0,0,3.35-.88l.45-.21v4c-1.09.12-2.17.18-3.22.35s-2,.47-3.1.73c.34.68,1,.78,1.45,1a11.74,11.74,0,0,0,1.33.33c.12,0,.31.19.3.27-.11,1-.26,2-.4,2.95,0,0-.08.08-.08.07a42,42,0,0,0-4.05-1.27,23.11,23.11,0,0,0-3.73-.36c-.59,0-1,.81-.66,1.32,1.62,2.81,3.34,5.56,4.81,8.44,1.84,3.56,3.49,7.21,5.18,10.85.82,1.76,1.53,3.57,2.3,5.37,0,.06,0,.14-.05.37l-4.81-3-.12.09c.24.76.48,1.53.74,2.29.44,1.32.9,2.62,1.32,4,.23.71-.09,1.11-.84,1.12a6,6,0,0,1-1.2,0,2.06,2.06,0,0,0-2.13,1,4.89,4.89,0,0,1-1,1.06,1.45,1.45,0,0,1-1.09.22,1.27,1.27,0,0,1-.59-.86c-.3-1.67-.53-3.36-.8-5.05-.23-1.42-.49-2.85-.73-4.27s-.56-3.09-.78-4.65a2.94,2.94,0,0,0-1.14-1.67c-1-1-2.07-2-3.06-3.07a5.49,5.49,0,0,0-2.23-1.17,15,15,0,0,0,0,2.61c.13.72.2,1.34-.42,1.8a1.68,1.68,0,0,0-.68,1.82,2.66,2.66,0,0,1-1.39,3c-1.92,1.2-3.75,2.57-5.74,3.62a16.67,16.67,0,0,1-4.48,1.51,20.24,20.24,0,0,1-3.82.11c-2,0-4-.12-5.94,0a20.6,20.6,0,0,0-4.09.76,7.64,7.64,0,0,1-5.36-.64,1.09,1.09,0,0,0-1.22.08c-1.43,1.06-2.87,2.09-4.29,3.16-1.19.89-2.32,1.85-3.53,2.7a4.66,4.66,0,0,1-1.7.67,15.89,15.89,0,0,1-2.58.26,1.13,1.13,0,0,1-.75-.34,3.94,3.94,0,0,0-3.35-1.4c-1.45.22-2.21-.66-2.78-1.68a10,10,0,0,1-1-7.09c.25-1.2.71-1.45,1.92-1.73,1.48-.34,2.92-.89,4.37-1.35.34-.11.66-.27,1-.39s.4-.3.13-.61c-.78-.87-1.56-1.74-2.27-2.66a2.49,2.49,0,0,1-.63-1.44,6.6,6.6,0,0,0-.88-2.73c-.16-.39-.43-.75-.56-1.16a.92.92,0,0,1,.17-.68c.55-.76.57-.75.06-1.58l-.24-.41c-.19-.31-.23-.57.13-.81a1.37,1.37,0,0,0,.57-1.23c0-1.6.37-2.21,1.93-2.65s3.25-.74,4.89-1.06a2.73,2.73,0,0,0,1.54-1.72l-5.36.52c.18-.87.63-1,1.35-1.05,1.48,0,3-.17,4.42-.32.83-.08,1-.39.4-1-1.2-1.3-2.45-2.56-3.67-3.84-.71-.74-.72-.76-.18-1.7.11.07.26.11.32.21a23.66,23.66,0,0,0,4.3,4.8c.32.3.56.15.85-.11,1.89-1.66,3.78-3.31,5.7-4.93a17.47,17.47,0,0,1,1.75-1.2,6.39,6.39,0,0,0,2-2.69,11.07,11.07,0,0,1,2.1-3,3.83,3.83,0,0,1,5.19,0,4.57,4.57,0,0,0,1.68.78c.46.18.94.33,1.52.52L600.63,202l1.71.78c-.61.29-1.16.57-1.72.81a9.14,9.14,0,0,0-4.26,3.43c-.48.77-.41.81.31,1.31a13.42,13.42,0,0,0,3.68,1.66l-1.33.78c-.47.28-.46.41,0,.67s.64.36,1,.6C598.25,212.84,596.42,213.44,595,215.09Zm-4.8,23.09c-.29-.55-.52-1.07-.82-1.55-.92-1.46-2.75-2-4-.79-.29.29-.48.09-.71-.09-1-.74-1.88-1.52-2.89-2.17a4.39,4.39,0,0,0-3.1-.83,25,25,0,0,0-3.54,1c-1.46.46-2.93.92-4.36,1.48-.47.19-1.22,0-1.4.76s-.45,1.48-.57,2.23a6.06,6.06,0,0,0,1,4.17,2,2,0,0,0,2,1.14,4,4,0,0,1,3.3,1.44,1.84,1.84,0,0,0,1.19.5,4.1,4.1,0,0,0,1.63-.3,2.77,2.77,0,0,0,1.29-.9,7.83,7.83,0,0,0,1.37-4.76,2,2,0,0,0-1.1-1.83,5.18,5.18,0,0,0-4.63-.37,8.34,8.34,0,0,1-1.32.38l0-.13,1.86-1.33-1.71-.41a2.85,2.85,0,0,1,2.41-.25,8.65,8.65,0,0,0,1.43.4,10.28,10.28,0,0,1,3.42,1.33c.92.59,1.2,1.15,1,1.94-.29,1.28-.56,2.56-.85,3.92a2,2,0,0,0,.38-.15l2.65-2.12c.12-.1.27-.31.35-.29.8.26,1.25-.32,1.75-.73s.9-.85,1.39-1.21.81-.6,1.37-.35a7.07,7.07,0,0,0,5.27.69,17.71,17.71,0,0,1,4.5-.52c2-.09,4.06,0,6.09-.06,1.17,0,2.34.25,3.5-.19,1.43-.54,2.93-.91,4.33-1.53a14.6,14.6,0,0,0,5.25-4,1.93,1.93,0,0,0,.45-1.38c-.09-.49-.73-.42-1.18-.44a5.41,5.41,0,0,0-2.59.62,4.84,4.84,0,0,1-.8.17c.78-1.05,3.08-1.84,4.19-2a1.13,1.13,0,0,0,.91-.57,12.11,12.11,0,0,0,1.22-3.7c.08-.38.09-.83-.46-.83a1.12,1.12,0,0,0-.71.37c-.56.58-1,1.26-1.62,1.79a1.45,1.45,0,0,1-2.43-.2c-.27-.38-.52-.78-.76-1.19-.83-1.39-1.65-2.8-2.48-4.19-.06-.11-.2-.27-.26-.25a.57.57,0,0,0-.31.28c-.14.36-.24.74-.36,1.11-.66-.25-.74-.43-.54-1.09a2.24,2.24,0,0,0,.22-.79,1,1,0,0,0-.37-.73c-.16-.1-.53,0-.74.16a1.07,1.07,0,0,0-.43.6c-.09.55-.46.61-1,.69.12-.53.18-1,.32-1.44a1.76,1.76,0,0,1,2.14-1.25,3.12,3.12,0,0,1,1.55,1.23c.92,1.32,1.9,2.61,2.95,4,.32-.71.62-1.29.83-1.89a.83.83,0,0,0-.12-.68c-.7-1-1.41-2-2.16-2.9A5.11,5.11,0,0,0,612.2,217a4,4,0,0,0-1.57-.33c-1.94-.19-3.89-.44-5.83-.48-3.42-.08-6.84,0-10.26,0a.87.87,0,0,0-.67.36c-.53,1.15-1,2.32-1.49,3.48a1.43,1.43,0,0,1-.33.58c-.08.06-.44-.07-.51-.2a.94.94,0,0,1,0-.68c.27-.79.57-1.58.91-2.34a9,9,0,0,1,5.41-5.24c.13,0,.21-.18.34-.29l-.91-.63,1.16-.93c-.57-.29-1.09-.52-1.56-.81-1.86-1.16-3.53-.72-4.48,1.24a6.64,6.64,0,0,1-2.26,2.66c-2.69,1.84-5.4,3.65-8.1,5.49a1,1,0,0,1-1.3-.06l1.09-.77c2.55-1.78,5.08-3.57,7.65-5.31a4.84,4.84,0,0,0,1.86-2,4.27,4.27,0,0,1,3.28-2.79c.12,0,.26-.2.33-.34a8.36,8.36,0,0,1,2.41-3.05c.91-.64,1.84-1.24,2.77-1.88l-1-.6,1.21-.87-.75-.34a3.17,3.17,0,0,1-.82-.42,2.72,2.72,0,0,0-4.08.11,17,17,0,0,0-2,3,7.67,7.67,0,0,1-2.07,2.6,66.26,66.26,0,0,0-5.66,4.48,49.82,49.82,0,0,0-7.21,8.33c-.38.56-.49.56-1,0l1.21-2-.12-.13c-.74.11-1.49.19-2.22.36a7.12,7.12,0,0,0-1.53.59c-.77.41-.88.92-.24,1.5a9.55,9.55,0,0,0,1.93,1.32,2.79,2.79,0,0,0,2.52,0,4,4,0,0,1,1.81-.46,15.57,15.57,0,0,1,3.44.77,21.82,21.82,0,0,1,3,1.51c.16.08.21.34.31.52-.38.05-.65.47-1.14.23-1.18-.57-2.38-1.11-3.6-1.56a3.53,3.53,0,0,0-1.86-.22,30.3,30.3,0,0,0-2.9,1,1.48,1.48,0,0,1-1,0c-1-.46-1.89-1-2.82-1.52-.41-.24-.69-.17-.67.3a2.2,2.2,0,0,0,.39,1.14,7.4,7.4,0,0,0,5.78,2.7c.56,0,1,.09,1.31.71a3.92,3.92,0,0,1-1,.5,6.63,6.63,0,0,1-3-.32,8.88,8.88,0,0,1-3.26-1.91c-.13-.12-.36-.12-.54-.18a1.8,1.8,0,0,0,0,.65,6.74,6.74,0,0,0,2.35,2.7,8.61,8.61,0,0,0,5.79,2.08c.53,0,1.06-.14,1.59-.2a3.05,3.05,0,0,0,2.08-1,1.2,1.2,0,0,1,1.15-.5c1.3.27,2.59.55,3.88.87.6.16,1.18.43,1.77.65l0,.27a5.68,5.68,0,0,1-1.47.11c-.6-.11-1.17-.44-1.78-.57a3.87,3.87,0,0,0-2.45-.11,1.77,1.77,0,0,0-1,1.21c0,.58.45.79.89.91a8.47,8.47,0,0,0,2,.39,27.12,27.12,0,0,0,5.83-.41c.62-.1,1.25-.21,1.59.64a3,3,0,0,1-.63.23,30,30,0,0,1-3.77.44c-2,0-3.94-.1-5.91-.21a1.2,1.2,0,0,1-.83-.5c-.78-1.25-2-1.15-3.22-1.16a8.18,8.18,0,0,1-2.77-.19,23.79,23.79,0,0,1-3.34-1.92l-.47-.25a2.94,2.94,0,0,0,.3.87c.47.59,1,1.12,1.49,1.73a2.39,2.39,0,0,0,3,.83,2.75,2.75,0,0,1,1.48,0,9.89,9.89,0,0,1,3.63,1.8,3.67,3.67,0,0,0,3,.85,2.47,2.47,0,0,1,.64-.09,3.83,3.83,0,0,1,3.39,2.65C591,237.62,591,237.64,590.23,238.18ZM620.9,224l.12-.17a5,5,0,0,0-.35-.58,61,61,0,0,1-6.06-9.26c-.38-.72-.71-1.46-1-2.2-.15-.36-.2-.82.23-1,.15-.06.54.25.67.48.31.54.51,1.14.79,1.69a68.83,68.83,0,0,0,4.94,8.09A48.15,48.15,0,0,0,627,228.7a69,69,0,0,0,8.77,7.13c.61.41,1.25.76,1.88,1.14l.11-.15c-.68-1.44-1.35-2.9-2-4.33a1.64,1.64,0,0,0-.57-.57c-1.36-1-2.78-1.89-4.09-2.93a32.88,32.88,0,0,1-6.11-6.36c-.77-1.06-1.48-2.16-2.26-3.3a1,1,0,0,1,1.26.38c1.08,1.46,2.11,3,3.29,4.33a29.61,29.61,0,0,0,5.74,5.21c.45.31.94.56,1.51.9,0-.24,0-.31,0-.36-1.4-2.85-2.72-5.74-4.23-8.54a76.86,76.86,0,0,0-4.43-7.34,46,46,0,0,0-7.57-7.78q-2.12-1.87-4.18-3.79c-.55-.51-1-1.11-1.57-1.61a3.94,3.94,0,0,0-6.31,1.45,6,6,0,0,1-1.43,2.54c-.08.06-.09.21-.17.44l2.08-.24-1.18,1.74c1,0,1.91,0,2.81,0a2.32,2.32,0,0,1,2.13,1.27,9,9,0,0,1,.77,2.3,16.86,16.86,0,0,0,1.43,4.67,29.14,29.14,0,0,0,4.08,5.88,1,1,0,0,1,.13,1.27c-.36.62-.62,1.29-.94,1.93a1.33,1.33,0,0,0,.21,1.69c.23.28.44.37.74.07.64-.64,1.35-1.23,1.93-1.92a.84.84,0,0,1,1.22-.25C620.27,223.74,620.59,223.85,620.9,224Zm8.91-22.6a3.6,3.6,0,0,1-.85-.09c-.48-.2-.63,0-.72.45a11.8,11.8,0,0,1-3.49,6.15c-.49.47-1,.89-1.52,1.32l3.13,3.5c2.1-2.28,4.79-3.27,7.6-4,1.4-.36,2.86-.52,4.28-.78.11,0,.29-.1.29-.16,0-.43,0-.86,0-1.29-.34,0-.67,0-1,0-.84.1-1.67.27-2.51.3-.25,0-.59-.28-.77-.52-.44-.63,0-1.15.36-1.59a8.17,8.17,0,0,1,1.15-1l-1.2-1.11c-.48.62-.92,1.2-1.37,1.77a7.24,7.24,0,0,1-2.52,2.37c-.91.41-2.27.11-2.13-1.27a12.07,12.07,0,0,1,.56-2.34C629.29,202.57,629.56,202,629.81,201.39Zm-1.29,30.32a1.84,1.84,0,0,0,0,.4c.18,1.18.37,2.35.56,3.52.08.46.15.93.23,1.4.22,1.24.45,2.48.68,3.72.19,1.08.36,2.16.57,3.23.1.52.45.69.87.5a2,2,0,0,0,1-2.24,12.38,12.38,0,0,1-.34-1.49c-.19-.95-.34-1.9-.54-2.85-.31-1.43-.65-2.85-1-4.28A3.49,3.49,0,0,0,628.52,231.71Zm3,2.33a4,4,0,0,0,.05.57c.29,1.16.59,2.32.89,3.48s.55,2.39.88,3.57c.3,1,.51,1.14,1.59,1.11.65,0,.84-.25.65-.85-.53-1.71-1.13-3.39-1.57-5.12A4.17,4.17,0,0,0,631.52,234ZM629,211.66l.08.24c.25,0,.5,0,.75,0a15.63,15.63,0,0,1,1.94.28c.91.25,1.79.58,2.68.9.39.14.63.06.71-.35s.23-.76-.32-.85a5.92,5.92,0,0,1-2.82-1.31c-.13-.1-.36-.22-.47-.17C630.72,210.83,629.88,211.25,629,211.66Z"/>
      <path class="cls-2" d="M571.61,259.05a8.65,8.65,0,0,0-.1.89l.09,9.65c0,1.26-.32,1.57-1.6,1.57-.36,0-.72,0-1.08,0a1,1,0,0,1-1-1.07q0-8.16,0-16.31a.94.94,0,0,1,.84-1.05,6.82,6.82,0,0,1,3.36.08,2.36,2.36,0,0,1,1.08,1c1.35,2.37,2.64,4.77,4,7.15.64,1.16,1.29,2.31,1.93,3.46.06.1.14.18.3.4a7,7,0,0,0,.11-.8c0-3.16,0-6.32,0-9.48,0-1.26.35-1.6,1.59-1.6q13.68,0,27.35,0c1,0,1.38.31,1.28,1.3a2.8,2.8,0,0,1-.09.88c-.21.46-.66.55-1.15.55q-11.31,0-22.62,0c-.74,0-1.48,0-2.22,0-.36,0-.49.12-.49.49,0,1.08,0,2.15,0,3.23,0,2.42-.05,4.83-.06,7.25,0,1,.05,2,.06,2.94,0,1.16-.44,1.59-1.59,1.59-.42,0-.84,0-1.26,0a2.47,2.47,0,0,1-2.56-1.44c-1.89-3.48-3.85-6.93-5.77-10.39a1.33,1.33,0,0,1-.1-.28Z"/>
      <path class="cls-2" d="M632.22,265.48c-1.32,0-2.64,0-4,0-.55,0-.67.23-.53.69a3.3,3.3,0,0,0,3.92,2.25,3.73,3.73,0,0,0,2-1.28,1.17,1.17,0,0,1,.76-.35,15.42,15.42,0,0,1,1.8,0c.81,0,1.06.44.74,1.22a4.82,4.82,0,0,1-2.59,2.64,7.14,7.14,0,0,1-7.29-.34,6.66,6.66,0,0,1-2.82-4.56,7.49,7.49,0,0,1,.83-5.13,5.47,5.47,0,0,1,3.42-2.82,9,9,0,0,1,2.55-.41c2.89.15,5.06,1.22,6.18,4.54a9.71,9.71,0,0,1,.3,2.65c0,.57-.5.91-1.3.92h-4Zm-1.48-2.62h2.4c.71,0,.86-.27.56-.93a3.28,3.28,0,0,0-3.11-1.79,3.15,3.15,0,0,0-2.82,2.09c-.14.43,0,.65.45.63C629.06,262.84,629.9,262.86,630.74,262.86Z"/>
      <path class="cls-2" d="M588,265.51a3,3,0,0,0,2,2.81,3.27,3.27,0,0,0,3.82-1.18,1.19,1.19,0,0,1,.76-.36c.66,0,1.32,0,2,0s.72.17.67.77a3.55,3.55,0,0,1-1.55,2.39c-2.59,2.06-7.17,2.15-9.58-.65a7.14,7.14,0,0,1-1.69-3.81,7.52,7.52,0,0,1,.77-4.68,6.07,6.07,0,0,1,4.55-3.29,6.91,6.91,0,0,1,5.64,1.28,5.46,5.46,0,0,1,2,3.25,12.26,12.26,0,0,1,.27,2.17c0,.94-.27,1.24-1.23,1.27-.76,0-1.52,0-2.28,0h-5.52Zm3.1-2.65h2.64c.37,0,.59-.11.44-.54a3.26,3.26,0,0,0-3.09-2.18,3,3,0,0,0-3,2.06c-.19.5,0,.66.45.66Z"/>
      <path class="cls-2" d="M600,266.76c.26,0,.52,0,.78,0a.86.86,0,0,1,.93.57,2,2,0,0,0,1.63,1.17,9,9,0,0,0,2.58-.18,1,1,0,0,0,.8-1.11,1,1,0,0,0-.84-.94c-1.24-.36-2.49-.67-3.74-1a4.49,4.49,0,0,1-3.2-2.31,3.68,3.68,0,0,1,1.83-4.84,7.87,7.87,0,0,1,7.7.47,3,3,0,0,1,1.43,2.22c.08.63-.12.84-.76.88a5.3,5.3,0,0,1-1.49,0,1.43,1.43,0,0,1-.91-.56c-.74-1.25-3-1.34-4-.76a1,1,0,0,0,0,1.79,18.86,18.86,0,0,0,2.21.69,28.3,28.3,0,0,1,3.67,1.25,3.17,3.17,0,0,1,1.56,3.39,4.27,4.27,0,0,1-4,3.81,9,9,0,0,1-5.28-.53c-1.23-.56-2.35-1.28-2.59-2.79-.14-.93,0-1.16,1-1.17Z"/>
      <path class="cls-2" d="M571.44,206a10.07,10.07,0,0,0-.74-.9.81.81,0,0,0-.53-.24,2.88,2.88,0,0,1-3.09-3,1.1,1.1,0,0,0-.4-.77,3.35,3.35,0,0,1-1.26-2.13,2.87,2.87,0,0,1,1.51-2.51,2.43,2.43,0,0,1,2.46,0,2,2,0,0,0,1.93.18,3.26,3.26,0,0,1,4.07,2.35c0,.17.18.35.16.51-.07.68.39.81.89.91a2,2,0,0,1,1.69,1.65c.07.27.17.52.28.82l1.07-.77c0-.57-.07-1.14-.08-1.71a2.74,2.74,0,0,1,2.78-2.7,1.33,1.33,0,0,0,1.24-.55,3,3,0,0,1,5.13.66,2.88,2.88,0,0,1-.5,3.09.84.84,0,0,0-.27.66,2.85,2.85,0,0,1-2.69,3.66.81.81,0,0,0-.9.78c-.31,1.87-2.3,2.47-4,1.73a4.07,4.07,0,0,1-2.33-2.82c-.2-.74-.43-1.47-.67-2.19a2.4,2.4,0,0,0-2-1.55c-.36-.08-.51-.2-.54-.57a3.24,3.24,0,0,0-3.63-2.91,2.27,2.27,0,0,1-1.64-.22,1.83,1.83,0,0,0-2.25.72,1.68,1.68,0,0,0,.42,2.33,1.41,1.41,0,0,1,.44.77,3,3,0,0,0,3,2.62.88.88,0,0,1,1,.65,2.59,2.59,0,0,0,1.59,1.42c.17.06.29.27.43.41-.18.08-.35.17-.54.24-.37.14-.86.17-1.11.43a3.24,3.24,0,0,1-2,.77c-1.66.23-2.9.93-3.24,2.73,0,.14-.27.27-.43.33a2.09,2.09,0,0,0-1.23,2.23,2,2,0,0,0,2.17,1.56,5.44,5.44,0,0,0,1.3-.76c.23-.13.48-.35.72-.35a3,3,0,0,0,3.09-2.27.59.59,0,0,1,.43-.3,2.42,2.42,0,0,0,2.32-1.89c.05-.19.31-.31.54-.53a2.5,2.5,0,0,1-2.19,3.35.57.57,0,0,0-.41.36,2.6,2.6,0,0,1-3.19,2.19.86.86,0,0,0-1,.38c-1.26,1.65-3.67,1.42-4.79-.64a2.72,2.72,0,0,1,1.19-3.73.94.94,0,0,0,.56-.81,3,3,0,0,1,2.88-2.72C570,206.94,570.87,206.9,571.44,206Zm12.26-1.52.48-.07a3.16,3.16,0,0,0,2.46-2.29,7.71,7.71,0,0,1,.65-2.13,1.82,1.82,0,0,0-.57-2.25,2,2,0,0,0-2.42-.1c-.58.54-1.07,1.17-2,1l0,0a2.76,2.76,0,0,0-1.89,2.84,1.33,1.33,0,0,1-.63,1.43,2,2,0,0,0-.55,2.84,2.45,2.45,0,0,0,4.51-1.33Z"/>
      <path class="cls-2" d="M611.77,257.74c0-1.2,0-2.34,0-3.48s.51-1.63,1.48-1.51a2.91,2.91,0,0,0,.66,0c1.07-.1,1.37.26,1.46,1.47.08,1,0,2,0,3.06,0,.39.12.53.52.51s1.08,0,1.61,0,.89.28.9.92c0,1.58,0,1.58-1.56,1.57s-1.47,0-1.47,1.45,0,3.2,0,4.79a1.94,1.94,0,0,0,1.92,2c1,.07,1.09.17,1.09,1.15,0,.22,0,.44,0,.66,0,.39-.2.73-.61.77-1.57.15-3.13.19-4.44-.89a3.3,3.3,0,0,1-1.36-2.35c-.09-1.8-.14-3.61-.19-5.42,0-.54,0-1.08,0-1.62s-.15-.56-.56-.56c-.74,0-.86-.16-.89-.88,0-.22,0-.44,0-.66a.84.84,0,0,1,.91-.94Z"/>
      <path class="cls-2" d="M619.25,261.91v-7.86c0-.94.35-1.29,1.29-1.3h1.08a1.17,1.17,0,0,1,1.33,1.31c0,1.74,0,3.48,0,5.22v10.5a1.2,1.2,0,0,1-1.34,1.37c-.38,0-.76,0-1.14,0-.82,0-1.2-.38-1.2-1.23,0-2.67,0-5.35,0-8Z"/>
      <path class="cls-2" d="M630.92,255.5H625.7c-.38,0-.7,0-.74-.53-.06-1,0-1.26.58-1.35.83-.13,1.67-.2,2.5-.28,1.17-.11,2.35-.21,3.52-.34s2.44-.3,3.66-.43a3.19,3.19,0,0,1,1.19,0,1.06,1.06,0,0,1,.64.65,5.7,5.7,0,0,1,.07,1.6c0,.52-.4.72-.92.72-1.76,0-3.52,0-5.28,0Z"/>
      <path class="cls-2" d="M574.91,203.35c-.39.65-.7.7-1.13.31-1.28-1.18-2.6-2.34-3.9-3.51a2.34,2.34,0,0,1-.2-.27c.18-.49.48-.44.79-.19Z"/>
      <path class="cls-2" d="M568.19,211.8a13.92,13.92,0,0,1,3.57-2.75c.17-.09.44,0,.67,0-.08.17-.1.4-.23.5-1.07.81-2.15,1.61-3.25,2.38C568.57,212.26,568.54,212.22,568.19,211.8Z"/>
      <path class="cls-2" d="M615.89,233.07a6.06,6.06,0,0,1-3.17,2.32,2.39,2.39,0,0,1-1.13,0c-.94-.17-1.88-.48-2.83-.56a3.82,3.82,0,0,0-1.56.41c-1.62.62-3.21,1.37-4.87,1.84a13.19,13.19,0,0,1-3.28.22c-.63,0-1.27-.09-1.91-.07a1.22,1.22,0,0,1-1.2-.69,1.53,1.53,0,0,1,.26-.08c1.42-.09,2.83-.15,4.24-.26.82-.06,1-.47.59-1.16a14.5,14.5,0,0,0-1.23-1.51,1.34,1.34,0,0,0-1.74-.24c-1.08.51-2.09,1.14-3.18,1.61a2.92,2.92,0,0,1-1.71.22,26.83,26.83,0,0,1-3.09-1.17.81.81,0,0,1-.2-.14.85.85,0,0,1,1-.26,12.79,12.79,0,0,0,1.72.45,3.41,3.41,0,0,0,2.13-.4c1.57-.73,3.18-1.38,4.77-2a.67.67,0,0,1,.92.29c.67,1,1.39,1.92,2.06,2.91.32.46.59.71,1.22.46a11.15,11.15,0,0,0,4.5-2.64c.68-.77,1.35-1.56,2-2.31a3.28,3.28,0,0,1,2-1.42l4-.42c-.16.7-.4,1-1,1a13,13,0,0,0-2.79.45,3.2,3.2,0,0,0-1.31,1c-.6.71-1.1,1.5-1.66,2.24-.22.28-.17.48.11.63a3.72,3.72,0,0,0,2.73.51,6.05,6.05,0,0,0,2.71-1.42C615.45,232.64,615.66,232.7,615.89,233.07Z"/>
      <path class="cls-2" d="M594.16,222.75a1,1,0,0,1-1.13.69,17.79,17.79,0,0,0-2.3.26c-.47.07-1.09.75-1,1.11a1.57,1.57,0,0,0,1.18,1.14,6.2,6.2,0,0,0,3.57.07c1.17-.3,2.36-.51,3.54-.78.52-.12.91-.05,1,.66-.8.25-1.65.54-2.51.76s-1.87.34-2.77.6a4.88,4.88,0,0,1-3-.22c-1-.34-2-.88-3-1.24a3.21,3.21,0,0,0-2.65.25,27.9,27.9,0,0,1-3.43,1.68,6.76,6.76,0,0,1-2.17.13c-.09,0-.19-.12-.32-.22a2,2,0,0,1,1.4-.52,3.77,3.77,0,0,0,2-.81c1.16-.82,1.13-1,0-1.89a2.89,2.89,0,0,0-2.71-.37,1.52,1.52,0,0,1-.46.1A1.36,1.36,0,0,1,579,224c.07-.12.12-.28.23-.35a3.1,3.1,0,0,1,3.6-.24,4.73,4.73,0,0,0,3.25.85,8.61,8.61,0,0,1,1.46.22,1.06,1.06,0,0,0,.82-.26,4.61,4.61,0,0,1,3.8-1.69A3.32,3.32,0,0,1,594.16,222.75Z"/>
      <path class="cls-2" d="M609.1,227.6c-.53.23-1.06.44-1.58.7-1.15.57-2.27,1.19-3.43,1.74a2,2,0,0,1-2.19.13c-.13-.09-.3-.18-.36-.31-.57-1.38-1.78-1.27-2.92-1.25a9.25,9.25,0,0,0-4.43,1.31c-.6.34-1-.22-1.42-.31l0-.16c1.32-.48,2.62-1,4-1.43s2.6-.55,3.91-.8c.37-.06.71-.11,1,.33.81,1.31,1.53,1.51,3,.87,1.87-.83,3.73-1.7,5.62-2.52a1,1,0,0,1,.78.11c.09.05.08.4,0,.6-.11.48-.27,1-.42,1.43-.57,1.83-2.09,2.73-3.58,3.64-.81.49-1.64.92-2.46,1.38-.28.15-.57.2-.69-.14-.05-.11.14-.38.29-.49,1.31-1,2.68-1.93,4-3a8.54,8.54,0,0,0,1.2-1.61Z"/>
      <path class="cls-2" d="M607.29,221.59a.79.79,0,0,1-.45,1.25,8.58,8.58,0,0,1-4,1c-1.16-.06-2.32-.24-3.48-.39a5.81,5.81,0,0,0-4,.89c-.13.08-.26.23-.4.24a2.71,2.71,0,0,1-.68-.09,2.32,2.32,0,0,1,.24-.53,6.14,6.14,0,0,1,3.74-1.81,13.9,13.9,0,0,1,5,.26,6.3,6.3,0,0,0,3.43-.6Z"/>
      <path class="cls-2" d="M611.64,224.83a11.35,11.35,0,0,0-1.3-.37,2.51,2.51,0,0,0-2.23.52,6.24,6.24,0,0,1-5.8,1.25c-.4-.09-.87,0-1-.58s0-.64.46-.6.91.08,1.36.13a4.69,4.69,0,0,0,4-1.23,2.76,2.76,0,0,1,2.11-.56,9.37,9.37,0,0,1,1.8.29C611.77,223.85,611.8,223.92,611.64,224.83Z"/>
      <path class="cls-2" d="M591,216.66a4.54,4.54,0,0,1-.56,1.19c-.66.75-1.39,1.45-2.12,2.14-.11.1-.34.06-.52.08,0-.15,0-.34.15-.44a8.49,8.49,0,0,0,2-3.1c.06-.17.43-.29.67-.32S590.89,216.48,591,216.66Z"/>
      <path class="cls-2" d="M597,202.1a.62.62,0,0,1-.74-.67c0-.51.33-.64.67-.65a.66.66,0,0,1,.7.65C597.57,201.76,597.41,202.15,597,202.1Z"/>
      <path class="cls-2" d="M595.05,210c.55.11.84.28.83.73a.62.62,0,0,1-.66.67c-.52.05-.68-.35-.66-.7S594.88,210.25,595.05,210Z"/>
      <path class="cls-2" d="M608.71,203.65c-.55,0-.81-.24-.8-.78s.24-.77.77-.76.89.27.89.75A.82.82,0,0,1,608.71,203.65Z"/>
      <path class="cls-2" d="M585.29,199.34a14.47,14.47,0,0,1-3.24,4.4c-.11.09-.35,0-.53.07,0-.17-.09-.39,0-.49,1-1.34,2.07-2.68,3.14-4,.1-.13.36-.13.55-.2Z"/>
    </g>
    <g>
      <path class="cls-2" d="M879.15,257.74h-112v-44.8h112Zm-91.88-3.6c.3.05,13,0,13.2,0l.79-5.73h5.29l.8,5.76h13V242l1.56-.23,3.28,12.43h6.72c0-.11,0-.19-.06-.28q-1.65-5.55-3.29-11.11c-.3-1-.59-2-.89-3a.24.24,0,0,1,.09-.3c.19-.15.37-.31.54-.47a11.44,11.44,0,0,0,2.54-3.73,9.9,9.9,0,0,0,.85-3.37c0-.31,0-.62,0-.94h0q1.95,11.61,3.89,23.21h8L849,220.43h0v33.71h12.89c0-.24,0-6.59,0-6.77h-6c0-.33,0-8.42,0-8.61H862v-6.89h-6.07s0-.06,0-.08v-8.16c0-.06,0-.12,0-.18h0l0,0h4.52c.5,0,1,0,1.52,0v-6.86H842.75q-1.56,11.34-3.13,22.67h0l-3.09-22.67h-7l.76,6a.39.39,0,0,1-.12-.14,11.65,11.65,0,0,0-1-1.52,10.9,10.9,0,0,0-3.57-3.08,10.48,10.48,0,0,0-4.87-1.24c-2.35,0-4.69,0-7,0l-.2,0q0,16.47,0,32.92c-.27-1.56-.51-3.13-.74-4.7s-.48-3.13-.71-4.69-.47-3.15-.71-4.72-.47-3.14-.71-4.71-.48-3.14-.71-4.71-.48-3.13-.71-4.69-.47-3.14-.72-4.7c-.43,0-8.91,0-9.09,0l-5.16,34.22q0-17,0-34.05a.41.41,0,0,0,0-.11.06.06,0,0,0,0,0s0,0,0,0l0,0h-8.65l-3.1,19.24h0l-3-19.23h-8.67a.45.45,0,0,0,0,.08q0,18.66,0,37.32a.88.88,0,0,0,0,.17s0,0,0,0,0,0,0,0c.34,0,6.64,0,6.82,0V236.46h0l3,17.7h3.65l3-17.76h0Zm75.88-37.6s0,.07,0,.1q0,18.68,0,37.36a.52.52,0,0,0,0,.11v0h0c.33.05,12.39,0,12.55,0,0-.29,0-6.57,0-6.74h-4.31c-.48,0-1,0-1.47,0V216.54Z"/>
      <path class="cls-2" d="M820.35,235.32v-12a2,2,0,0,1,.64.05,4.3,4.3,0,0,1,3.41,2.92,7.67,7.67,0,0,1,.43,2.17,9.65,9.65,0,0,1,0,2,6.39,6.39,0,0,1-1.39,3.36,4.2,4.2,0,0,1-2.37,1.48A1.6,1.6,0,0,1,820.35,235.32Z"/>
      <path class="cls-2" d="M803.93,226.58q1,7.88,1.94,15.8h-3.76a2.8,2.8,0,0,1,0-.29c.17-1.47.35-2.93.52-4.4s.3-2.68.46-4l.48-4,.33-2.86A1.2,1.2,0,0,1,803.93,226.58Z"/>
    </g>
    <g>
      <path class="cls-2" d="M1025.49,73.35c.08-1.68.12-3.71.27-5.73a45.36,45.36,0,0,1,1.63-9.68,20.55,20.55,0,0,1,2.54-5.75,9.31,9.31,0,0,1,3.82-3.46,5.43,5.43,0,0,1,2.65-.61,9.77,9.77,0,0,0,1.21,0,10.46,10.46,0,0,1,4.64,1,8.34,8.34,0,0,1,3,2.07,4.68,4.68,0,0,1,.77,1.16,2,2,0,0,1-.42,2.44,23.28,23.28,0,0,0-1.71,2,7.68,7.68,0,0,0-1.52,3.84,6.5,6.5,0,0,0,1.6,5,6.43,6.43,0,0,0,3.82,2.24,6.23,6.23,0,0,0,6.49-3,9,9,0,0,0,1.13-4.93,17,17,0,0,0-3-8.75c-.17-.27-.35-.54-.53-.81l-.13-.2a.5.5,0,0,1,0-.62c.15-.12.33-.08.56.14L1055,52.3l18.39,17.78c.13.14.28.27.42.4a4.25,4.25,0,0,1,0,6.32c-1.68,1.57-3.31,3.18-5,4.77l-16.38,15.84a.93.93,0,0,1-.24.21c-.13,0-.3.11-.39,0a.45.45,0,0,1-.16-.36.94.94,0,0,1,.18-.41,24.13,24.13,0,0,0,2.1-3.7,15.23,15.23,0,0,0,1.42-6.12,8.44,8.44,0,0,0-1.53-5.31,6.06,6.06,0,0,0-4.23-2.45,6.66,6.66,0,0,0-7.21,5.4,7.41,7.41,0,0,0,1.16,5.34,13.12,13.12,0,0,0,2,2.42,2,2,0,0,1,.44,2.45,4.1,4.1,0,0,1-.58.94,8.08,8.08,0,0,1-3,2.19,12.57,12.57,0,0,1-5.33,1.19,7.83,7.83,0,0,1-6.13-2.8,15.33,15.33,0,0,1-2.82-4.79,33.29,33.29,0,0,1-1.73-6.44,56.42,56.42,0,0,1-.78-7.33C1025.58,76.5,1025.55,75.1,1025.49,73.35Z"/>
      <path class="cls-6" d="M997.82,74.28a4.33,4.33,0,0,1,1.38-3.34l21.38-20.67c.08-.07.15-.17.24-.19a.5.5,0,0,1,.4,0,.51.51,0,0,1,.11.38.74.74,0,0,1-.17.31,41.56,41.56,0,0,0-5.17,8.06,33.45,33.45,0,0,0-2.81,8.67,38.45,38.45,0,0,0-.56,7.94,34.13,34.13,0,0,0,6.46,19.14c.68,1,1.41,1.87,2.1,2.81a.83.83,0,0,1,.14.5c0,.23-.23.31-.44.2a1,1,0,0,1-.26-.2L999.73,77.68a13.63,13.63,0,0,1-1.06-1.09A3.84,3.84,0,0,1,997.82,74.28Z"/>
      <g>
        <path class="cls-2" d="M998.76,122.42a5.73,5.73,0,0,1-.37-.48,1.59,1.59,0,0,1-.07-1.7,1.5,1.5,0,0,1,1.44-.77,1.56,1.56,0,0,1,1.43,1.48,3.17,3.17,0,0,1-.78,2.41,5.83,5.83,0,0,1-3.89,2.18,7.1,7.1,0,0,1-8-5.86,9,9,0,0,1,.83-6.28,6.75,6.75,0,0,1,5.07-3.72,6.13,6.13,0,0,1,6,2.16,3.32,3.32,0,0,1,.81,2.18,1.74,1.74,0,0,1-1,1.65,1.6,1.6,0,0,1-1.68-.45,1.67,1.67,0,0,1-.19-1.79,1.42,1.42,0,0,1,.26-.38c.17-.16.15-.29,0-.47a3.13,3.13,0,0,0-2.48-1.36,3.56,3.56,0,0,0-3.32,1.65,6.83,6.83,0,0,0-1.13,2.95,10.23,10.23,0,0,0,.32,4.82,5.2,5.2,0,0,0,1.74,2.62,3.56,3.56,0,0,0,4.44-.06A7.17,7.17,0,0,0,998.76,122.42Z"/>
        <path class="cls-2" d="M1071.69,123.91c-.18.16-.38.32-.56.5a4,4,0,0,1-4.31.81,3.31,3.31,0,0,1-2-2.58,16.76,16.76,0,0,1-.16-3.09c0-.71,0-1.43,0-2.15s-.44-1.1-1.22-1.09c-.33,0-.35,0-.35-.36a1,1,0,0,1,.38-.8,3.24,3.24,0,0,1,2.73-.76,1.3,1.3,0,0,1,1,1.32c0,1,0,2,0,3s.06,2,.14,2.94a3.08,3.08,0,0,0,.28,1,1.5,1.5,0,0,0,1.35.91,2.21,2.21,0,0,0,2.53-2.14,15.22,15.22,0,0,0,.09-1.79c0-.74,0-1.48,0-2.22s-.44-1.08-1.2-1.07c-.34,0-.36,0-.36-.35a1,1,0,0,1,.38-.81,3.26,3.26,0,0,1,2.72-.76,1.3,1.3,0,0,1,1,1.24c0,.31,0,.63,0,.94,0,1.93,0,3.86,0,5.78a1.84,1.84,0,0,0,0,.41,1.06,1.06,0,0,0,1.22,1c.27,0,.31.1.32.31a1,1,0,0,1-.46.86,3.36,3.36,0,0,1-1.64.59,3.29,3.29,0,0,1-.77,0,1.08,1.08,0,0,1-.94-.73C1071.86,124.49,1071.78,124.18,1071.69,123.91Z"/>
        <path class="cls-2" d="M1013.74,124.1a1.41,1.41,0,0,1-1.36,1.4,2.08,2.08,0,0,1-2.35-1.27q-.19.17-.39.3a4.51,4.51,0,0,1-4.53.72,3.35,3.35,0,0,1-2-4.36,3.27,3.27,0,0,1,2.24-1.9,6.36,6.36,0,0,1,4.24.12l.15,0a9.1,9.1,0,0,0-.14-2.34,1.51,1.51,0,0,0-1.13-1.09,3.84,3.84,0,0,0-2.18.16c0,.34,0,.65,0,.94a1.25,1.25,0,0,1-1.33,1.11,1.27,1.27,0,0,1-1.23-1.25,1.71,1.71,0,0,1,.61-1.39,3.91,3.91,0,0,1,1.82-.9,7.8,7.8,0,0,1,3.78,0,2.61,2.61,0,0,1,2.2,2.68c.05,1.74,0,3.47.06,5.2,0,.16,0,.33,0,.49a1,1,0,0,0,.81,1.11C1013.27,124,1013.51,124,1013.74,124.1Zm-4-2.23v-.44a1.1,1.1,0,0,0-.86-1.23,3.24,3.24,0,0,0-1.69-.12,1.78,1.78,0,0,0-1.57,1.75,1.86,1.86,0,0,0,1.44,1.93,2.59,2.59,0,0,0,2.35-.67.74.74,0,0,0,.33-.74A3.84,3.84,0,0,1,1009.77,121.87Z"/>
        <path class="cls-2" d="M1056.6,125.53a5.4,5.4,0,0,1-5.5-5,5.46,5.46,0,0,1,3.13-5.73,5.55,5.55,0,0,1,6.2.79,5,5,0,0,1,1.72,3.31,6,6,0,0,1-.67,3.93,5.23,5.23,0,0,1-4,2.66C1057.21,125.5,1056.9,125.51,1056.6,125.53Zm2.82-5.53c0-.36-.05-.73-.09-1.09a4.56,4.56,0,0,0-.88-2.32,2.26,2.26,0,0,0-2.36-.91,2.36,2.36,0,0,0-1.76,1.6,7,7,0,0,0-.2,4,3.78,3.78,0,0,0,1,2,2.13,2.13,0,0,0,1.89.65,2.49,2.49,0,0,0,2-1.63A6.33,6.33,0,0,0,1059.42,120Z"/>
        <path class="cls-2" d="M1045,115.87c-.5,0-1,0-1.46,0-.16,0-.21-.06-.25-.19a.87.87,0,0,1,.87-1.19h.86c0-.56,0-1.09,0-1.61a4.69,4.69,0,0,1,.49-2,3.24,3.24,0,0,1,2.09-1.7,5.34,5.34,0,0,1,3.71.29,2.3,2.3,0,0,1,1.41,1.55,1.41,1.41,0,0,1-1,1.77,1.25,1.25,0,0,1-1.32-.5,1.22,1.22,0,0,1-.1-1.39l.1-.18a1.37,1.37,0,0,0-.18-.16,1.68,1.68,0,0,0-2.64,1.11,6.51,6.51,0,0,0-.09,1c0,.52,0,1,0,1.57,0,.19,0,.26.26.26h2.4c.18,0,.25.07.29.24a1,1,0,0,1-.94,1.27c-.33,0-.66,0-1,0h-.92v.25c0,2,0,3.94,0,5.91a5,5,0,0,0,.08.86,1.07,1.07,0,0,0,.87.92l.43.1c.15,0,.33,0,.37.26s0,.48-.18.61a1.88,1.88,0,0,1-.7.3,11.91,11.91,0,0,1-1.58.16,9.13,9.13,0,0,1-2.39-.15,2.41,2.41,0,0,1-.45-.16.58.58,0,0,1-.31-.81.37.37,0,0,1,.19-.18,1.33,1.33,0,0,0,1.11-1.46q0-3.28,0-6.56A1.5,1.5,0,0,0,1045,115.87Z"/>
        <path class="cls-2" d="M1041.54,122.24a1,1,0,0,1,.33,1.09,2.17,2.17,0,0,1-.88,1.29,4.65,4.65,0,0,1-2.29.86,5.57,5.57,0,0,1-3.54-.56,5.3,5.3,0,0,1-2.88-4.69,6.05,6.05,0,0,1,.83-3.43,5.14,5.14,0,0,1,4.09-2.57,5,5,0,0,1,3,.52,4,4,0,0,1,2,4.44,2.41,2.41,0,0,0-.08.25c-.07.28-.22.37-.51.37-2.06,0-4.12,0-6.18,0-.44,0-.45,0-.4.43a3.44,3.44,0,0,0,1.67,2.75,4.1,4.1,0,0,0,4.83-.62A.63.63,0,0,0,1041.54,122.24Zm-6.58-3.82.09,0h4.21c.27,0,.39-.15.42-.44a2.19,2.19,0,0,0-1.18-2.13,2.26,2.26,0,0,0-2.41.15A2.93,2.93,0,0,0,1035,118.42Z"/>
        <path class="cls-2" d="M1082.2,116.07a1.51,1.51,0,0,0-1,.8,4.11,4.11,0,0,0-.48,2c0,1.19,0,2.39,0,3.58a3.43,3.43,0,0,0,.06.55,1.05,1.05,0,0,0,.81.9,1.68,1.68,0,0,0,.32.09.41.41,0,0,1,.41.38c0,.31,0,.54-.28.64a4.68,4.68,0,0,1-1.16.28,10.73,10.73,0,0,1-3.1-.11,1.79,1.79,0,0,1-.46-.16.59.59,0,0,1-.27-.86.28.28,0,0,1,.17-.13,1.33,1.33,0,0,0,1.09-1.48c0-1.71,0-3.42,0-5.13,0,0,0,0,0-.07,0-.84-.42-1.19-1.26-1.06-.24,0-.29,0-.32-.24a1,1,0,0,1,.28-.87,2.78,2.78,0,0,1,2.34-.86,1.26,1.26,0,0,1,1,.81,8.85,8.85,0,0,1,.31.84l.15-.24a3.23,3.23,0,0,1,2-1.55,1.62,1.62,0,0,1,2,1.17,1.49,1.49,0,0,1-1,1.8,1.31,1.31,0,0,1-1.58-.93A1.67,1.67,0,0,0,1082.2,116.07Z"/>
        <path class="cls-2" d="M1023.78,116.33a1,1,0,0,1,.23-1.15,2.8,2.8,0,0,1,2.29-.84,1.33,1.33,0,0,1,1.07.87c.1.24.18.5.27.78l.16-.24a3.07,3.07,0,0,1,2-1.52,2.28,2.28,0,0,1,1,.07,1.53,1.53,0,0,1,.65,2.47,1.26,1.26,0,0,1-1.34.4,1.2,1.2,0,0,1-.92-1,.68.68,0,0,1,0-.12,1.23,1.23,0,0,0-.74.42,2.5,2.5,0,0,0-.64,1.35,8.85,8.85,0,0,0-.15,1.35c0,1,0,2.08,0,3.12a4.21,4.21,0,0,0,0,.62,1.16,1.16,0,0,0,.87,1,2.82,2.82,0,0,0,.31.07.41.41,0,0,1,.4.4.51.51,0,0,1-.24.58,2.35,2.35,0,0,1-.81.27,11.34,11.34,0,0,1-3.49-.06,2.08,2.08,0,0,1-.48-.16.58.58,0,0,1-.32-.71.35.35,0,0,1,.28-.31,1.26,1.26,0,0,0,1-1.26c0-.23,0-.47,0-.7q0-2.23,0-4.47a2.78,2.78,0,0,0,0-.58.8.8,0,0,0-.84-.71C1024.21,116.3,1024,116.32,1023.78,116.33Z"/>
        <path class="cls-2" d="M1014.72,116.34a1,1,0,0,1,.16-1.09,2.76,2.76,0,0,1,2.4-.9,1.31,1.31,0,0,1,1,.86c.1.24.17.49.26.77a2.17,2.17,0,0,0,.15-.22,3.26,3.26,0,0,1,2-1.55,1.66,1.66,0,0,1,2,1.09,1.5,1.5,0,0,1-1,1.89,1.28,1.28,0,0,1-1.54-1,1.21,1.21,0,0,0,0-.14,1.48,1.48,0,0,0-.93.66,3.07,3.07,0,0,0-.52,1.59c0,1.44-.06,2.89,0,4.33a1.21,1.21,0,0,0,1.16,1.36c.29.06.42.18.45.46a.5.5,0,0,1-.32.58,4.58,4.58,0,0,1-1.15.27,10.75,10.75,0,0,1-3.1-.11,2,2,0,0,1-.43-.15.59.59,0,0,1-.34-.74.32.32,0,0,1,.25-.28,1.24,1.24,0,0,0,1.06-1.34c0-1.64,0-3.28,0-4.91a4,4,0,0,0,0-.6.87.87,0,0,0-1-.89Z"/>
      </g>
    </g>
    <g>
      <path class="cls-2" d="M1045.63,238.16c0,1.77,0,3.55,0,5.33,0,.41-.12.59-.56.58-.76,0-1.52,0-2.29,0-.43,0-.57-.15-.56-.58q0-4.81,0-9.63a5.12,5.12,0,0,0-.16-1.23,2.55,2.55,0,0,0-2.28-1.8,2.46,2.46,0,0,0-2.39,1.42,4.93,4.93,0,0,0-.36,1.64c0,3.17,0,6.33,0,9.5,0,.67,0,.67-.68.67s-1.49,0-2.24,0c-.43,0-.57-.16-.57-.58,0-3.08,0-6.15,0-9.23a6.54,6.54,0,0,0-.24-1.71,2.34,2.34,0,0,0-2.42-1.71,2.56,2.56,0,0,0-2.45,2,4.4,4.4,0,0,0-.07.89c0,3.2,0,6.39,0,9.59,0,.68,0,.69-.7.69h-2.24c-.38,0-.54-.1-.54-.5,0-3.53,0-7.05,0-10.57a5.85,5.85,0,0,1,10.07-3.58c.27.27.45.24.7,0a5.9,5.9,0,0,1,4.43-1.8,5.79,5.79,0,0,1,5.34,4.18,6.47,6.47,0,0,1,.22,1.58C1045.64,235,1045.63,236.56,1045.63,238.16Z"/>
      <path class="cls-6" d="M994.63,230.74a21.8,21.8,0,0,0-2.52-.89c-3.74-.82-7.19,1.86-6.77,5.78a5.33,5.33,0,0,0,5.19,4.71,7.2,7.2,0,0,0,3.72-1c.1-.06.2-.1.37-.18,0,.2,0,.34,0,.48,0,1.3,0,2.6,0,3.9a.75.75,0,0,1-.47.77,8.54,8.54,0,0,1-3.55.82,10.16,10.16,0,0,1-7.1-17.6,9.51,9.51,0,0,1,6.28-2.68,8.47,8.47,0,0,1,4.3.78.81.81,0,0,1,.54.86c0,1.27,0,2.54,0,3.81C994.65,230.49,994.64,230.63,994.63,230.74Z"/>
      <path class="cls-2" d="M1060.89,242.66a3.37,3.37,0,0,0-.31.21,6.62,6.62,0,0,1-5.23,1.47,7.87,7.87,0,0,1-5.32-2.73,8.17,8.17,0,0,1-1.89-4.28,8.7,8.7,0,0,1,.67-5,8.21,8.21,0,0,1,8.78-4.61,8,8,0,0,1,6.85,7.8v7.93c0,.55,0,.59-.58.59h-2.24c-.54,0-.57,0-.58-.6v-.74Zm-4.54-1.61a4.73,4.73,0,0,0,4.87-5,4.93,4.93,0,1,0-4.87,5Z"/>
      <path class="cls-2" d="M1015.09,244.47a11.91,11.91,0,0,1-7-2.43c-.11-.08-.2-.19-.3-.27s-.19-.33,0-.52c.63-.61,1.25-1.24,1.87-1.86a.3.3,0,0,1,.49,0,7.92,7.92,0,0,0,3.67,1.77,6.7,6.7,0,0,0,3.74-.09,1.57,1.57,0,0,0,1.2-1.55,1.28,1.28,0,0,0-1-1.31,18.36,18.36,0,0,0-2.65-.56,11.86,11.86,0,0,1-4.72-1.41,4.25,4.25,0,0,1-.35-7,7.55,7.55,0,0,1,5.44-1.63,10.65,10.65,0,0,1,4.54,1.06c.67.35,1.3.79,1.94,1.2.25.16.25.33,0,.54-.54.53-1.09,1.07-1.61,1.62-.27.27-.47.13-.7,0a7.11,7.11,0,0,0-4.55-1.36,8.16,8.16,0,0,0-2.16.5,1.36,1.36,0,0,0,.07,2.53,27.65,27.65,0,0,0,3,.71,12.26,12.26,0,0,1,4.35,1.23,4.29,4.29,0,0,1,.93,6.6,7.09,7.09,0,0,1-4.24,2C1016.46,244.35,1015.77,244.4,1015.09,244.47Z"/>
      <path class="cls-2" d="M1076.73,231.71v-6.36c0-.59,0-.63.64-.63.78,0,1.55,0,2.33,0,.36,0,.51.14.51.51,0,.65,0,1.31,0,2s.09.74.76.75c.91,0,1.82,0,2.73,0,.37,0,.47.12.46.46q0,1.14,0,2.28c0,.37-.14.51-.5.5-1,0-1.92,0-2.87,0-.42,0-.58.16-.58.58,0,2.14,0,4.27,0,6.41a2.65,2.65,0,0,0,2.66,2.6H1084c.29,0,.4.13.4.41v2.46c0,.24-.06.42-.34.43a7.24,7.24,0,0,1-4.68-1,5.43,5.43,0,0,1-2.58-4.29c-.09-2.34,0-4.69,0-7Z"/>
      <path class="cls-2" d="M1070.52,238.65v4.79c0,.6,0,.62-.63.62h-2.24c-.57,0-.57,0-.56-.58,0-1,0-2,0-3s0-2.14,0-3.21.05-1.94,0-2.9a5.94,5.94,0,0,1,5.8-6.43c.46,0,.93,0,1.39,0s.5.1.49.46c0,.78,0,1.56,0,2.33,0,.34-.15.44-.46.45a10.51,10.51,0,0,0-1.78.13,2.54,2.54,0,0,0-2,2.5c0,1.61,0,3.22,0,4.84Z"/>
      <path class="cls-2" d="M995.81,243.17V226.88l.13-.08c.42.37.88.7,1.26,1.1a26.5,26.5,0,0,1,4.37,6.18,1.9,1.9,0,0,1,0,1.9,25.91,25.91,0,0,1-4.44,6.25,14,14,0,0,1-1.16,1Z"/>
    </g>
    <g>
      <path class="cls-2" d="M1253.93,97.84a12.76,12.76,0,0,1,4,0,1.31,1.31,0,0,1-.39.15c-.7,0-.94.43-.94,1.07,0,1.52,0,3,0,4.57a7,7,0,0,0,.15,1.21,1.8,1.8,0,0,0,1.53,1.52,3.12,3.12,0,0,0,2.44-.49,2,2,0,0,0,.85-1.54c.05-.61.09-1.23.1-1.85q0-1.72,0-3.45c0-.74-.21-.94-.93-1h-.06l-.24-.16c.09-.05.18-.13.26-.13h2.63c.08,0,.17.09.25.13a.72.72,0,0,1-.24.16c-.78.15-1,.35-1,1.15,0,1.27,0,2.54,0,3.81,0,.5-.05,1-.11,1.5a2.69,2.69,0,0,1-2.09,2.36,4.9,4.9,0,0,1-3-.08,2.56,2.56,0,0,1-1.77-2.09,11.47,11.47,0,0,1-.11-1.43c0-1.27,0-2.54,0-3.81a4.57,4.57,0,0,0,0-.64.74.74,0,0,0-.79-.75C1254.28,98,1254.13,97.89,1253.93,97.84Z"/>
      <path class="cls-2" d="M1209.1,97.1c.62.14,1.24.25,1.85.42.36.09.67.16.91-.21a.26.26,0,0,1,.24-.07c.06,0,.12.12.13.19.06.89.12,1.79.16,2.68,0,.08-.09.17-.13.25a.69.69,0,0,1-.19-.19,10.21,10.21,0,0,0-.58-1.2,2.87,2.87,0,0,0-4.62-.15,4.74,4.74,0,0,0-.81,2.46,6.5,6.5,0,0,0,.28,2.77,3.26,3.26,0,0,0,5,1.32c.3-.26.55-.57.84-.84a1.1,1.1,0,0,1,.33-.14.94.94,0,0,1,0,.34,4,4,0,0,1-3.45,2,4.64,4.64,0,0,1-2.35-.5,4.26,4.26,0,0,1-2.2-3.27,5.29,5.29,0,0,1,.68-3.6,4.44,4.44,0,0,1,3.94-2.14Z"/>
      <path class="cls-2" d="M1235.12,101.18l-.6,1.33c-.4.89-.78,1.78-1.19,2.66a1.37,1.37,0,0,1-.25.29,1.28,1.28,0,0,1-.23-.29c-.55-1.21-1.09-2.43-1.64-3.64a.77.77,0,0,0-.26-.35c0,.1,0,.21,0,.32v3c0,.69,0,.71.71,1h-1.78v0l.1,0c.44-.11.56-.25.57-.71,0-.62,0-1.24,0-1.86V101c0-.73,0-.79-.68-1v-.1h.59c1.13,0,.83-.17,1.3.84l1.38,3.06.2.37c.11-.2.2-.33.26-.46.51-1.16,1-2.32,1.53-3.49a.48.48,0,0,1,.51-.32,9.3,9.3,0,0,1,1.16.06c-.78.1-.7.66-.7,1.17q0,1.69,0,3.39c0,.64.07.75.66,1h-2.14v0l.26-.08a.51.51,0,0,0,.37-.47c0-1.18,0-2.37,0-3.55C1235.21,101.31,1235.18,101.29,1235.12,101.18Z"/>
      <path class="cls-2" d="M1241.05,102.69a.77.77,0,0,0,.17.11,1.25,1.25,0,0,1,.85,1.41,1.48,1.48,0,0,1-1.15,1.19,6.51,6.51,0,0,1-1.07.13c-.75,0-1.5,0-2.24,0h-.35c0-.06,0-.1,0-.1.53-.19.61-.29.61-.86v-3.48c0-.51.08-1.08-.74-1.09l0-.08.3,0c.79,0,1.59,0,2.39,0a3.22,3.22,0,0,1,1.11.26,1.38,1.38,0,0,1,.23,2.4Zm-1.64.09,0,.07h-.22c-.42,0-.43,0-.43.43s0,1,0,1.56c0,.21.08.35.29.34a6,6,0,0,0,1.28-.06,1,1,0,0,0,.78-1,1,1,0,0,0-.64-1.08A9.27,9.27,0,0,0,1239.41,102.78Zm-.67-1.42h0v.29c0,1,.06,1,1,.91a1.1,1.1,0,0,0,1.11-.91,1.17,1.17,0,0,0-.62-1.31,2.06,2.06,0,0,0-1.25-.16.29.29,0,0,0-.28.35Z"/>
      <path class="cls-2" d="M1283.28,105.49c.63-.13.63-.6.63-1.08,0-1.16,0-2.32,0-3.49,0-.69,0-.75-.68-1a2,2,0,0,1,.24,0c.74,0,1.47,0,2.21,0a2.5,2.5,0,0,1,.93.2,1.27,1.27,0,0,1,.84,1.24,1.36,1.36,0,0,1-.85,1.29c-.47.23-.47.23-.16.67l1,1.34a1.61,1.61,0,0,0,.9.68.34.34,0,0,1,.21.19c-.45,0-.9,0-1.34,0-.08,0-.16-.13-.22-.22l-1.46-2c0-.06-.08-.16-.14-.18a1.28,1.28,0,0,0-.47-.07c-.07,0-.14.2-.15.31,0,.4,0,.81,0,1.21,0,.67,0,.71.63,1Zm1.46-4v.44c0,.86.09.92.91.66a1.26,1.26,0,0,0,.78-1.53,1.12,1.12,0,0,0-1.3-.87c-.24,0-.41.14-.4.43S1284.74,101.18,1284.74,101.47Z"/>
      <path class="cls-2" d="M1264.53,101.45c0,.13,0,.25,0,.38v2.55c0,.77,0,.77.71,1.12h-1.77v-.06l.14,0a.57.57,0,0,0,.5-.63v-3.84a.9.9,0,0,0-.52-.75,3.27,3.27,0,0,1-.44-.24,1.72,1.72,0,0,1,.39,0c1.21,0,.83-.16,1.58.75s1.63,2,2.43,3a1.34,1.34,0,0,1,.12.3l.17-.12c0-.12,0-.24,0-.36v-2.56c0-.69,0-.72-.64-1H1269l-.18.1c-.46.08-.56.18-.56.65v4.2a2.62,2.62,0,0,1,0,.28c0,.14-.08.27-.12.41a1.54,1.54,0,0,1-.31-.25l-2.88-3.51c-.11-.14-.23-.26-.35-.39Z"/>
      <path class="cls-2" d="M1218.26,102.7a2.84,2.84,0,0,1-2,2.86,2.64,2.64,0,0,1-3.14-1.61,3.15,3.15,0,0,1,.74-3.52,2.52,2.52,0,0,1,2.77-.47,2.69,2.69,0,0,1,1.67,2.32C1218.27,102.42,1218.26,102.56,1218.26,102.7Zm-.88.06A15.43,15.43,0,0,0,1217,101a1.51,1.51,0,0,0-2.8,0,4.32,4.32,0,0,0,0,3.4,1.44,1.44,0,0,0,1.36,1,1.46,1.46,0,0,0,1.46-1A14,14,0,0,0,1217.38,102.76Z"/>
      <path class="cls-2" d="M1281.69,101.68a2.51,2.51,0,0,1,0,1.81c0-.12-.09-.22-.12-.33a.61.61,0,0,0-.58-.43,7.79,7.79,0,0,0-1.08,0,.36.36,0,0,0-.25.24c0,.62,0,1.24,0,1.85a.4.4,0,0,0,.45.43,5,5,0,0,1,.77,0,1.45,1.45,0,0,0,1.55-.88,1.78,1.78,0,0,1,.21-.27l.13.06-.2.6c-.29.88-.13.75-1,.76s-2,0-3,0l-.35,0a.85.85,0,0,1,0-.09c.59-.22.6-.24.6-.88V101c0-.77,0-.77-.68-1.07.11,0,.21,0,.32,0h3.49c.31,0,.42.12.4.41s0,.49,0,.73h-.13a2.59,2.59,0,0,1-.14-.29.72.72,0,0,0-.77-.58c-.43,0-.87,0-1.31,0-.22,0-.33.07-.33.31,0,.55,0,1.11,0,1.66,0,.24.09.33.33.32h.89c.43,0,.6-.14.74-.56A1.81,1.81,0,0,1,1281.69,101.68Z"/>
      <path class="cls-2" d="M1289.07,105.56V103.8l.1,0a2,2,0,0,1,.13.34,1.53,1.53,0,0,0,1.3,1.24,1.09,1.09,0,0,0,1.21-.57,1,1,0,0,0-.42-1.23c-.44-.3-.92-.57-1.38-.87a4.91,4.91,0,0,1-.54-.39,1.33,1.33,0,0,1-.43-1.5,1.51,1.51,0,0,1,1.39-1,3.39,3.39,0,0,1,1,.18c.29.09.57.29.73-.17a3,3,0,0,1,0,1.84c-.08-.22-.14-.4-.2-.59a1.36,1.36,0,0,0-1.78-.89.78.78,0,0,0-.19,1.36,11.78,11.78,0,0,0,1.25.83c.2.14.42.26.62.39a1.53,1.53,0,0,1,.75,1.77,1.67,1.67,0,0,1-1.61,1.15,3.94,3.94,0,0,1-.9-.15C1289.76,105.4,1289.41,105.11,1289.07,105.56Z"/>
      <path class="cls-2" d="M1227.73,99.92h1.81a1.13,1.13,0,0,1-.16.11c-.43.1-.55.24-.56.68,0,.77,0,1.54,0,2.3a7.25,7.25,0,0,1,0,.93,1.82,1.82,0,0,1-1.77,1.7,4.93,4.93,0,0,1-1.27-.12,1.65,1.65,0,0,1-1.19-1.58c0-.85,0-1.7,0-2.55v-.45c0-.68-.07-.77-.67-1H1226v0a.43.43,0,0,1-.16,0,.49.49,0,0,0-.48.51c0,1.27,0,2.53.09,3.8a1.24,1.24,0,0,0,1.52,1,1.5,1.5,0,0,0,1.41-1.61c0-1,0-1.9,0-2.85C1228.38,100.19,1228.37,100.18,1227.73,99.92Z"/>
      <path class="cls-2" d="M1247,105.51h-1.54c0-.07,0-.13.06-.14a1.53,1.53,0,0,0,.72-.93q.91-2.19,1.85-4.36c0-.1.11-.2.2-.37.1.18.18.28.23.4.55,1.32,1.09,2.64,1.63,4,.22.54.36,1.12,1,1.36l0,.07h-2c.54-.48.54-.48.26-1.15s-.15-.69-1-.7a8.85,8.85,0,0,0-1,0,.58.58,0,0,0-.38.25,3.94,3.94,0,0,0-.32.76c-.14.4-.11.46.26.65l.18.11Zm1.08-4.31c-.09.17-.14.24-.17.32-.22.53-.45,1.06-.66,1.59-.08.19,0,.25.21.25.39,0,.78,0,1.18,0s.29-.11.2-.32-.29-.71-.43-1.06Z"/>
      <path class="cls-2" d="M1276.11,99.93h1.61c-.65.39-.73,1.08-1,1.67-.52,1.23-1,2.48-1.53,3.72a1.54,1.54,0,0,1-.23.29c-.08-.1-.19-.17-.23-.28-.68-1.55-1.34-3.11-2-4.66a3.69,3.69,0,0,0-.59-.74h2a.28.28,0,0,0,0,.06c-.54.33-.56.37-.31,1,.38.91.78,1.82,1.18,2.73a3.89,3.89,0,0,0,.2.35c.1-.2.18-.34.24-.48l1-2.43C1276.71,100.43,1276.71,100.43,1276.11,99.93Z"/>
      <path class="cls-2" d="M1222.2,113.13v-1.71c0-.36,0-.73-.44-.88H1223c-.45.31-.45.31-.45.85,0,.83,0,1.65,0,2.47a3,3,0,0,1-.09.51,2.79,2.79,0,0,1-.42-.35c-.59-.71-1.16-1.44-1.75-2.16-.09-.11-.19-.2-.35-.37a2.93,2.93,0,0,0-.05.41v1.6c0,.35,0,.71.43.84h-1.18l-.07-.08c.53,0,.51-.38.51-.72V111.3a.71.71,0,0,0-1-.59.49.49,0,0,0-.21.36c0,.92,0,1.83,0,2.75,0,.17.21.34.32.52h-1.35c.41-.16.43-.48.43-.83,0-.71,0-1.43,0-2.14,0-.37,0-.69-.48-.82a1.35,1.35,0,0,1,.29,0c.7,0,1.4,0,2.11,0a.83.83,0,0,1,.51.3c.58.68,1.13,1.39,1.69,2.09.07.1.13.21.2.32Z"/>
      <path class="cls-2" d="M1304.89,105.5h-2.14s0-.07,0-.07c.57-.2.58-.26.63-.87a3.31,3.31,0,0,0-.68-2.48c-.37-.45-.62-1-1-1.46a5.71,5.71,0,0,0-.7-.69h2.13v0l-.16.07c-.28.08-.4.3-.27.54.39.69.82,1.36,1.26,2.09.11-.14.17-.2.22-.28.29-.46.58-.92.86-1.38s.32-.69-.23-1.1h1.76s0,.07,0,.07a2.15,2.15,0,0,0-1.09,1.07c-.36.61-.76,1.21-1.12,1.82a1.16,1.16,0,0,0-.15.51c0,.44,0,.87,0,1.31s.07.56.53.7l.1,0Z"/>
      <path class="cls-2" d="M1272.58,114.56c-.43-.74-.53-1.53-.93-2.26-.07.15-.13.25-.17.35-.17.49-.34,1-.52,1.48a1.67,1.67,0,0,1-.21.33,2,2,0,0,1-.22-.32c-.32-.9-.62-1.8-1-2.69-.12-.31-.3-.6-.45-.91h1.27c-.42.23-.34.5-.24.77.19.55.38,1.11.58,1.66a1.66,1.66,0,0,0,.13.27h.09a9,9,0,0,0,.46-1.54,1.28,1.28,0,0,0-.57-1.15h1.45c-.62.24-.36.6-.26.92.16.48.33,1,.51,1.45,0,.1.09.2.15.34.06-.07.11-.11.12-.15.24-.65.48-1.3.71-2,.1-.29,0-.46-.28-.62h1a5.58,5.58,0,0,0-1,2.12c-.21.5-.37,1-.55,1.54A3.87,3.87,0,0,1,1272.58,114.56Z"/>
      <path class="cls-2" d="M1296.07,101c0-.33,0-.65.07-1,0-.06.16-.14.24-.14h4c.19,0,.3.09.29.29V101h-.1c0-.1-.1-.19-.14-.29a.77.77,0,0,0-.75-.55c-1.1,0-.88-.12-.89.81,0,1.17,0,2.34,0,3.52,0,.66.07.75.66,1h-2.13s0-.06,0-.06c.58-.21.62-.25.62-.86,0-1.35,0-2.69,0-4,0-.3-.11-.41-.4-.38-.13,0-.27,0-.41,0a.83.83,0,0,0-.81.61c0,.09-.07.17-.11.26Z"/>
      <path class="cls-2" d="M1223.4,104.08c-.06.22-.11.45-.18.68-.32.91-.12.76-1.07.77s-2,0-3,0h-.35c0-.06,0-.1,0-.1.55-.2.61-.28.61-.89,0-1.15,0-2.3,0-3.45,0-.51.1-1.08-.74-1.09l.06-.08h2.33V100l-.27.05c-.39.08-.54.24-.54.64,0,1.34,0,2.68,0,4,0,.4.14.55.54.54s.87,0,1.3-.06a1.07,1.07,0,0,0,.85-.66l.29-.5Z"/>
      <path class="cls-2" d="M1228.3,110.54h1.58c-.81.34-.49,1-.53,1.47a.33.33,0,0,0,.24.22,8.15,8.15,0,0,0,1.21,0,.36.36,0,0,0,.25-.24,3.43,3.43,0,0,0,0-1c0-.17-.23-.32-.35-.48h1.51a.84.84,0,0,1-.19.11.4.4,0,0,0-.31.43v2.72c0,.29.18.41.43.52h-1.46c.47-.13.39-.5.39-.83s0-.45,0-.67-.08-.28-.27-.28h-1.18c-.19,0-.27.09-.27.28s0,.53,0,.8,0,.58.45.63l0,.07h-1.44v0c.39-.1.44-.38.43-.73,0-.71,0-1.41,0-2.11,0-.36.07-.76-.52-.82Z"/>
      <path class="cls-2" d="M1284.11,110.57c.73,0,1.47,0,2.19,0a.92.92,0,0,1,.79.85,1,1,0,0,1-.67,1c-.24.1-.28.2-.12.4s.43.61.68.89.51.42.75.63a.91.91,0,0,1-1.19-.31c-.27-.36-.53-.74-.82-1.1a1.64,1.64,0,0,0-.41-.24,1.74,1.74,0,0,0-.16.41,2.17,2.17,0,0,0,0,.51c0,.31,0,.65.48.68l-.06.08h-1.45c.53-.16.43-.59.43-1v-2C1284.55,111,1284.57,110.66,1284.11,110.57Zm1,1h0a2.44,2.44,0,0,0,0,.54.41.41,0,0,0,.21.25.85.85,0,0,0,1-1,.8.8,0,0,0-.95-.54c-.4,0-.19.37-.24.58A.59.59,0,0,0,1285.14,111.56Z"/>
      <path class="cls-2" d="M1292,114.35h-1.7c.41-.3.18-.47,0-.64l-1.1-1a1.28,1.28,0,0,0,.39,1.65h-1.53c.53-.15.42-.57.42-.94,0-.67,0-1.35,0-2s0-.55-.51-.83h1.61a1.37,1.37,0,0,0-.43,1.68.52.52,0,0,0,.18-.1l1-1c.24-.26.23-.34-.1-.6h1.39a6.19,6.19,0,0,0-.65.42c-.4.36-.77.75-1.15,1.12-.11.12-.14.24,0,.36.56.51,1.11,1,1.67,1.53a3.35,3.35,0,0,0,.52.3Z"/>
      <path class="cls-2" d="M1283.73,112.44a1.92,1.92,0,0,1-2.64,1.92,1.89,1.89,0,0,1-1.18-1.82,2,2,0,0,1,2-2.16A1.94,1.94,0,0,1,1283.73,112.44Zm-.64,0a10.29,10.29,0,0,0-.32-1.14,1,1,0,0,0-1-.61,1,1,0,0,0-1,.63,2.81,2.81,0,0,0,0,2.29,1,1,0,0,0,1,.64,1.06,1.06,0,0,0,1-.75C1283,113.15,1283,112.81,1283.09,112.41Z"/>
      <path class="cls-2" d="M1256.15,112.46a1.89,1.89,0,0,1-2.05,2,1.77,1.77,0,0,1-1.59-1.2,2.09,2.09,0,0,1,1.2-2.82,1.88,1.88,0,0,1,2.44,1.6C1256.16,112.21,1256.15,112.34,1256.15,112.46Zm-3.17,0a8.83,8.83,0,0,0,.36,1.23.93.93,0,0,0,.92.58,1,1,0,0,0,1-.6,2.69,2.69,0,0,0-.06-2.44,1,1,0,0,0-1.85,0A7.17,7.17,0,0,0,1253,112.42Z"/>
      <path class="cls-2" d="M1295.48,105.5h-2.14a.32.32,0,0,0,0-.07c.58-.19.63-.21.64-.83,0-1.27,0-2.55,0-3.83,0-.57-.06-.6-.67-.84h2.17s0,.07,0,.07c-.56.14-.62.22-.63.82v3.7C1294.84,105.19,1294.86,105.22,1295.48,105.5Z"/>
      <path class="cls-2" d="M1269.4,99.92h2.15l.08.08c-.84,0-.72.59-.72,1.08v3.38c0,.74,0,.74.64,1h-2.15s0-.07,0-.07c.56-.17.63-.22.64-.79,0-1.29,0-2.58,0-3.87,0-.46-.19-.75-.72-.75Z"/>
      <path class="cls-2" d="M1242.77,99.91H1245l-.12.11c-.49.12-.58.21-.58.72,0,1.19,0,2.39,0,3.58,0,.8,0,.8.7,1.18h-2.2s0-.07,0-.07c.57-.19.63-.24.64-.86,0-1.25,0-2.5,0-3.74,0-.47-.14-.83-.74-.82Z"/>
      <path class="cls-2" d="M1262.17,111.6c0,.1,0,.2,0,.3,0,.57,0,1.15,0,1.72,0,.31,0,.58.4.72h-1.14c.44-.14.43-.48.43-.82,0-.69,0-1.38,0-2.07a.68.68,0,0,0-.52-.77l-.14-.08a1.06,1.06,0,0,1,1.28.25l1.68,2.09.29.31c0-.2,0-.31,0-.42,0-.51,0-1,0-1.54,0-.33,0-.63-.44-.74h1.19c-.51.12-.43.52-.43.86,0,.87,0,1.73,0,2.59a.23.23,0,1,1-.4.15l-1.92-2.35c-.06-.08-.14-.15-.21-.23Z"/>
      <path class="cls-2" d="M1268.73,113.48c0,.62-.19.9-.71.9h-2.11a4.12,4.12,0,0,1-.42,0c.51-.29.51-.29.51-.85v-2.11c0-.56,0-.56-.52-.84l.39,0H1268c.5,0,.64.26.42.75,0,0-.06,0-.08,0s-.26-.38-.42-.4a6.51,6.51,0,0,0-1.17,0,.23.23,0,0,0-.15.17,9.91,9.91,0,0,0,0,1.09.27.27,0,0,0,.19.17,1.15,1.15,0,0,0,1.25-.4v1.09c-.27-.51-.74-.35-1.16-.37-.22,0-.3.1-.3.31s0,.6,0,.9.1.35.35.35.47,0,.7,0a.87.87,0,0,0,.8-.38A3.18,3.18,0,0,1,1268.73,113.48Z"/>
      <path class="cls-2" d="M1232.49,114.25c.42,0,.48-.29.47-.61v-2.33c0-.34,0-.67-.5-.68l0-.09.32,0H1235c.5,0,.65.23.46.73,0,0-.06,0-.06,0-.23-.47-.64-.48-1.08-.46-.81,0-.72-.1-.73.74s0,.71.73.73a.81.81,0,0,0,.75-.38v1c-.32-.51-.81-.32-1.23-.33-.08,0-.22.15-.23.23,0,.33,0,.66,0,1a.29.29,0,0,0,.34.33,3.37,3.37,0,0,1,.55,0,1,1,0,0,0,1-.45.47.47,0,0,1,.15-.12.61.61,0,0,1-.55.84h-2.2l-.37,0Z"/>
      <path class="cls-2" d="M1259.29,111.34c-.32-.75-.92-.53-1.44-.55-.17,0-.25.07-.25.25V112c0,.2.11.28.3.28.35,0,.73.07.86-.45l.08.07v1c-.26-.46-.67-.33-1-.31-.07,0-.19.14-.2.21a4.94,4.94,0,0,0,0,1.09c0,.16.23.3.36.46h-1.41l-.07-.07c.52-.05.47-.4.47-.72V111.3c0-.32,0-.61-.44-.67l0-.08a1.55,1.55,0,0,1,.31,0h2C1259.4,110.51,1259.53,110.74,1259.29,111.34Z"/>
      <path class="cls-2" d="M1249.62,110.53h1.08a5.87,5.87,0,0,0-1.44,1.89,2.21,2.21,0,0,0-.12,1.58c0,.12.25.21.41.34H1248l-.06-.08c.53,0,.48-.38.51-.72a1.88,1.88,0,0,0-.42-1.39c-.17-.21-.29-.45-.45-.66s-.5-.63-.76-.95h1.55c-.12.08-.2.1-.22.15s-.16.27-.12.33c.23.41.48.8.75,1.19,0,0,.23,0,.27,0a8.07,8.07,0,0,0,.67-1.08C1249.8,111,1249.67,110.75,1249.62,110.53Z"/>
      <path class="cls-2" d="M1240.81,111.56l-.2-.32a1.16,1.16,0,0,0-1.13-.57,1.11,1.11,0,0,0-1,.68,2.55,2.55,0,0,0-.1,2,1.36,1.36,0,0,0,2.23.52,1,1,0,0,1,.24-.18,1.36,1.36,0,0,1-1.18.82,1.86,1.86,0,0,1-2.13-1.92,2,2,0,0,1,2.15-2.19,3.5,3.5,0,0,1,.62.15.52.52,0,0,0,.3,0c.23-.11.3,0,.3.19s0,.52,0,.79Z"/>
      <path class="cls-2" d="M1278.38,114.34h-1.49c.45-.14.4-.5.43-.84a1.77,1.77,0,0,0-.37-1.25c-.23-.29-.4-.63-.62-.93s-.43-.51-.66-.77h1.51c-.41.31-.41.34-.16.75s.37.55.54.83.27.21.4,0,.36-.55.53-.83.22-.42-.14-.74h1.2a5.33,5.33,0,0,0-1.46,1.91A2,2,0,0,0,1278,114C1278,114.12,1278.21,114.21,1278.38,114.34Z"/>
      <path class="cls-2" d="M1246.48,111.35c-.16-.56-.55-.61-1-.55a.33.33,0,0,0-.24.24c0,.94,0,1.87,0,2.81,0,.17.23.32.35.49h-1.38c.46-.16.41-.54.41-.9,0-.71,0-1.42,0-2.14a.69.69,0,0,0-.15-.49.77.77,0,0,0-.85.19l-.2.29c-.25-.52-.1-.78.4-.78h2.23C1246.6,110.51,1246.76,110.79,1246.48,111.35Z"/>
      <path class="cls-2" d="M1227.8,111.32c-.16-.5-.52-.56-.93-.54-.2,0-.29.08-.29.29,0,.9,0,1.81,0,2.71,0,.19.21.37.33.56h-1.37c.49-.14.42-.54.42-.89,0-.71,0-1.43,0-2.14,0-.17,0-.42-.15-.49a.76.76,0,0,0-.85.18c-.06.08-.13.17-.2.28-.24-.5-.09-.77.38-.77.76,0,1.51,0,2.27,0C1227.92,110.51,1228.06,110.76,1227.8,111.32Z"/>
      <path class="cls-2" d="M1241.41,114.26c.41,0,.46-.31.46-.62v-2.37c0-.44,0-.49-.44-.71h1.45c-.5.17-.42.59-.42,1q0,1,0,1.95c0,.53,0,.55.49.85h-1.51Z"/>
      <g>
        <path class="cls-2" d="M1253.27,89.51h-14.39c-.48,0-.48,0-.49-.46a11.68,11.68,0,0,0-1.53-5.12c-.8-1.55-1.64-3.06-2.39-4.62a9.26,9.26,0,0,1-.93-4.52,5.21,5.21,0,0,1,4.16-5,10.21,10.21,0,0,1,3.4,0,34.91,34.91,0,0,1,5.69,1.54c1.17.36,2.37.66,3.56,1a.64.64,0,0,0,.72-.21l.09-.09c.18-.21.47-.41.5-.64s-.28-.4-.44-.6a3.22,3.22,0,0,1,.35-4.41A1.83,1.83,0,0,1,1252,66a.77.77,0,0,0,.45-.84c0-.32,0-.64,0-1s-.11-.33-.34-.32l-1.21,0c-.24,0-.4-.08-.41-.34,0-.48,0-1,0-1.46,0-.3.18-.41.45-.4h1c.4,0,.45-.05.45-.47s0-.7,0-1.05.13-.37.38-.36h1c.23,0,.36.11.36.34,0,.39,0,.77,0,1.15s.12.4.41.39a11.66,11.66,0,0,1,1.18,0c.11,0,.3.14.3.23,0,.55,0,1.1,0,1.65,0,.23-.18.3-.39.29-.39,0-.79,0-1.18,0s-.39.11-.39.37a11,11,0,0,0,0,1.15.69.69,0,0,0,.29.48,3.6,3.6,0,0,1,1.52,2,3.05,3.05,0,0,1-.85,3.13c-.25.23-.24.37,0,.61.85,1,.71.78,1.78.5,1.9-.5,3.76-1.14,5.65-1.7a14.77,14.77,0,0,1,5.75-.76,5.13,5.13,0,0,1,4.5,3.62,8.06,8.06,0,0,1-.29,5.11,34.3,34.3,0,0,1-2.39,4.82,16.08,16.08,0,0,0-1.59,3.75,16.46,16.46,0,0,0-.3,2c0,.53.11.54-.57.54Zm-6-5.08h-.77c-.22,0-.33.09-.29.31a2.24,2.24,0,0,0,.14.58,3.29,3.29,0,0,0,1.49,1.65,1.89,1.89,0,0,0,2.6-.68,5.57,5.57,0,0,0,1.15-3.61,14.38,14.38,0,0,0-1.21-5.32,5.77,5.77,0,0,1-.69-2.57.38.38,0,0,0-.19-.26,9.33,9.33,0,0,0-1-.52,38.86,38.86,0,0,0-6.75-2.2,6.75,6.75,0,0,0-3.65,0,3.13,3.13,0,0,0-2.35,3,7.31,7.31,0,0,0,.67,3.6,35.47,35.47,0,0,0,2.63,4.85,14.56,14.56,0,0,0,2.55,3.15,3.32,3.32,0,0,0,1.54.78,1.11,1.11,0,0,0,1.37-.74,3.23,3.23,0,0,0,0-1.2c-.19-.81-.28-.85-1.11-.9a14.72,14.72,0,0,1-1.49-.12.54.54,0,0,1-.34-.32,8,8,0,0,1-.22-1.06c-.06-.44,0-.54.48-.51l1.44.11c.53,0,.59-.06.43-.57,0,0,0-.08,0-.12-.11-.36-.22-.71-.32-1.07s0-.32.26-.32c.41,0,.81,0,1.22,0a.55.55,0,0,1,.58.51c.09.43.21.85.31,1.27a.41.41,0,0,0,.48.36h1.37a.41.41,0,0,1,.45.29c.13.43.23.88.32,1.33,0,.19-.07.29-.28.29Zm7.79-1.65a12.53,12.53,0,0,0,.2,1.43,4.82,4.82,0,0,0,1.31,2.45,1.69,1.69,0,0,0,1.43.55,2.49,2.49,0,0,0,1.56-.8,2.8,2.8,0,0,0,.9-1.59c0-.27-.05-.42-.36-.41-.47,0-.94,0-1.41,0-.27,0-.37-.12-.32-.38s.17-.8.28-1.2a.44.44,0,0,1,.48-.34c.41,0,.81,0,1.22,0s.57-.07.69-.56.19-.85.33-1.26a.49.49,0,0,1,.35-.29c.45-.06.91-.05,1.37-.07.23,0,.32.12.25.33-.11.4-.23.79-.36,1.19s-.08.58.42.56l1.53-.11c.35,0,.44.06.41.4s-.11.67-.16,1-.34.53-.7.55c-.52,0-1,.06-1.56.07a.59.59,0,0,0-.56.35,2.66,2.66,0,0,0-.23,1.68.87.87,0,0,0,.62.71,2,2,0,0,0,1.78-.32,8.45,8.45,0,0,0,2.22-2.28,36.49,36.49,0,0,0,3.08-5.22,8.83,8.83,0,0,0,1.09-4.21,3.38,3.38,0,0,0-3.47-3.47A8.76,8.76,0,0,0,1264,72c-1.38.4-2.75.81-4.1,1.3-.92.32-1.79.77-2.68,1.18-.12,0-.27.2-.27.31a5.52,5.52,0,0,1-.62,2.36A15.57,15.57,0,0,0,1255,82.78Z"/>
        <path class="cls-2" d="M1253.29,94.14h-14.76c-.48,0-.48,0-.48-.47s0-1.22,0-1.83c0-.23.08-.33.32-.31a1.2,1.2,0,0,0,.19,0H1268c.51,0,.51,0,.51.53v1.6c0,.48,0,.48-.47.48Z"/>
      </g>
    </g>
    <g>
      <path class="cls-2" d="M1286.07,274.17H1219V207.09h12.38c.53,0,.53,0,.53-.53v-11.8c0-.55,0-.55.53-.55H1299v.46q0,33,0,66.08c0,.44-.15.5-.52.5h-11.76c-.61,0-.61,0-.61.62v12.31Zm-17.36-47.53a8.81,8.81,0,0,0-1.71-1.17,5,5,0,0,0-6.58,2.43,12.21,12.21,0,0,0-1.05,6,10,10,0,0,0,1.24,4.74c1.66,2.85,6.23,3.37,8.1.1a3.15,3.15,0,0,1,.2-.26c0,.64,0,1.19,0,1.73,0,.33.08.48.45.48,1.13,0,2.26,0,3.4,0,.34,0,.47-.1.47-.45q0-9.88,0-19.76c0-.34-.13-.44-.45-.44q-1.8,0-3.6,0c-.36,0-.49.11-.48.48,0,1.94,0,3.87,0,5.8Zm-15.35,11.94c.08.63.15,1.2.22,1.77,0,.2.11.34.35.34h3.88c.2,0,.27-.07.25-.3-.09-1.07-.2-2.14-.22-3.22,0-2.5,0-5,0-7.51a3.92,3.92,0,0,0-2.34-3.78,6.08,6.08,0,0,0-.89-.35,10.68,10.68,0,0,0-4.35-.38,8,8,0,0,0-4,1.37,4.61,4.61,0,0,0-1.87,3c-.06.29,0,.43.34.45,1.14.09,2.28.21,3.42.33.32,0,.46,0,.49-.37a1.84,1.84,0,0,1,1.12-1.51,3.16,3.16,0,0,1,2.14-.21,1.64,1.64,0,0,1,1.37,1.64c0,.31,0,.61,0,.92s-.11.34-.35.35l-1.92.17a14.29,14.29,0,0,0-3.82.8,5,5,0,0,0-2.93,2.62,4.44,4.44,0,0,0,1.29,5.39c1.74,1.21,5.33,1.4,7.24-.79Zm35.15-13.51c-.2,0-.5,0-.79.05a6.53,6.53,0,0,0-5.61,3.93,9.42,9.42,0,0,0-.71,5.47,7.26,7.26,0,0,0,14.44,0,9.3,9.3,0,0,0-.82-5.61C1293.71,226.28,1291.47,225.14,1288.51,225.07Zm-28.11,33.06c-.05-.79-.12-1.52-.12-2.24,0-2,0-4.08,0-6.12a3,3,0,0,0-1.87-3,7.59,7.59,0,0,0-6.85.37,3.41,3.41,0,0,0-1.63,2.37c-.06.28,0,.42.32.45.84.07,1.67.15,2.51.24.27,0,.41,0,.45-.34a1.37,1.37,0,0,1,.66-1,2.35,2.35,0,0,1,2-.2,1.21,1.21,0,0,1,.88,1.12c0,.2,0,.4,0,.6s-.09.41-.42.45c-1.15.13-2.3.25-3.44.48a4.49,4.49,0,0,0-2.42,1.31,3.43,3.43,0,0,0,.67,5.26,4.52,4.52,0,0,0,5.43-1l.3-.33c.05.46.07.84.15,1.22,0,.13.19.33.29.33C1258.32,258.14,1259.36,258.13,1260.4,258.13Zm4.76-9.91c0-.54,0-1,0-1.41s-.12-.41-.42-.41c-.66,0-1.31,0-2,0-1,0-.93-.16-.93.9v10.12c0,.13,0,.27,0,.4s.1.3.32.3H1265c.24,0,.34-.1.33-.33v-6.12a3.85,3.85,0,0,1,.39-1.89,1.57,1.57,0,0,1,1.66-.79,1.25,1.25,0,0,1,1.07,1.18,5.08,5.08,0,0,1,.08.95q0,3.27,0,6.52c0,.35.08.5.47.49.85,0,1.71,0,2.56,0,.38,0,.48-.12.48-.48,0-1.32,0-2.64,0-4s0-2.64,0-4a3.78,3.78,0,0,0-.86-2.55c-1.22-1.34-4.54-1.6-5.77.65C1265.34,247.94,1265.27,248,1265.16,248.22Zm26.93,4.69h3.32c.32,0,.45-.11.44-.44a8.77,8.77,0,0,0-.58-3,5,5,0,0,0-4.41-3.22,5.23,5.23,0,0,0-5,2.11,6.8,6.8,0,0,0-1.2,4.93,5.43,5.43,0,0,0,2,3.84,5.88,5.88,0,0,0,5.4,1.05,5.22,5.22,0,0,0,3.61-3.3c.21-.51.16-.57-.36-.61l-2.35-.19c-.24,0-.36,0-.42.29a2,2,0,0,1-2.27,1.5,2.23,2.23,0,0,1-1.89-2.51c0-.31.1-.42.42-.42C1289.87,252.92,1291,252.91,1292.09,252.91Zm-52.78-25.12c0-.66,0-1.32,0-2,0-.34-.12-.44-.45-.44-1.1,0-2.21,0-3.32,0-.35,0-.45.11-.45.46q0,7.2,0,14.4c0,.35.1.47.45.46,1.19,0,2.38,0,3.56,0,.42,0,.52-.14.52-.53,0-2.1,0-4.19,0-6.28a8.8,8.8,0,0,1,.4-2.27,2.68,2.68,0,0,1,2.44-2,3,3,0,0,0,.6,0c.11,0,.27-.18.27-.27,0-1.31,0-2.62,0-3.92,0-.1-.11-.28-.19-.29a2.84,2.84,0,0,0-2.58.6A6.67,6.67,0,0,0,1239.31,227.79Zm43,23.06c.45,0,.9-.06,1.35-.07.26,0,.35-.11.31-.38a4.63,4.63,0,0,0-1-2.33,5.2,5.2,0,0,0-4.46-1.89,5.38,5.38,0,0,0-5.09,3.6,7.24,7.24,0,0,0-.11,4.86,5,5,0,0,0,3.74,3.54,6.78,6.78,0,0,0,2.54.12,4.89,4.89,0,0,0,4.33-4.22c.06-.36-.07-.45-.39-.46l-2.11-.09c-.7,0-.7,0-.9.61a1.7,1.7,0,0,1-1.84,1.33,1.55,1.55,0,0,1-1.58-1.46,20,20,0,0,1-.11-2.79,3.82,3.82,0,0,1,.28-1.28,1.73,1.73,0,0,1,1.86-1.08,1.64,1.64,0,0,1,1.43,1.32,2.66,2.66,0,0,1,.07.39c0,.31.17.38.44.36S1281.93,250.87,1282.33,250.85ZM1275.26,233c0,2.41,0,4.82,0,7.23,0,.33.09.45.43.44h3.63c.36,0,.46-.13.46-.47q0-7.2,0-14.39c0-.35-.12-.46-.47-.46-1.17,0-2.34,0-3.51,0-.54,0-.54,0-.54.52Zm-38.79,20.73c0,1.29,0,2.59,0,3.88,0,.37.08.52.49.51.79,0,1.6,0,2.39,0,.61,0,.61,0,.61-.62q0-3.81,0-7.64c0-.29,0-.48.41-.45s.85,0,1.28,0,.4-.12.39-.4,0-.75,0-1.12c0-1.19,0-1.19-1.2-1.19-1,0-1-.05-.84-1l0-.12a.74.74,0,0,1,.75-.69,11.23,11.23,0,0,1,1.16,0c.28,0,.38-.07.37-.35,0-.65,0-1.31,0-2,0-.27-.1-.39-.35-.41a15.43,15.43,0,0,0-1.92-.09,3.4,3.4,0,0,0-3.55,3.56c0,.32.09.77-.08.93s-.61.11-.94.11-.35.11-.34.36c0,.48,0,1,0,1.44,0,.9,0,.92.91.9.36,0,.46.11.45.46C1236.46,251.16,1236.47,252.46,1236.47,253.75Zm9.64-5.49c0-.53,0-1,0-1.47,0-.3-.11-.39-.4-.39-.81,0-1.63,0-2.44,0-.32,0-.42.12-.42.42q0,5.46,0,10.92c0,.3.1.4.39.4.87,0,1.73,0,2.6,0,.39,0,.5-.12.5-.5,0-1.55,0-3.09,0-4.64a7.39,7.39,0,0,1,.4-2,1.88,1.88,0,0,1,1.48-1.22,3.71,3.71,0,0,1,.67-.07c.22,0,.31-.1.31-.32,0-.94,0-1.89,0-2.84a.44.44,0,0,0-.29-.32,2.05,2.05,0,0,0-2.22.92C1246.49,247.46,1246.34,247.83,1246.11,248.26Zm-11.91,17.93v.09c.47,0,.93,0,1.39,0a1.67,1.67,0,0,0,1.22-.49c1.16-1.05,1.12-3.78-1-4.33a3.86,3.86,0,0,0-.82-.17c-.83,0-1.67,0-2.51-.05-.56,0-.56,0-.56-.54,0-1.13,0-2.27,0-3.4,0-.31-.1-.42-.42-.39-.73.08-1.46.14-2.19.17-.33,0-.45.13-.45.48,0,1.71.05,3.41.05,5.12,0,.29.09.4.39.4l2.35.11c.83.05,1.65.1,2.47.18a1.25,1.25,0,0,1,1.19,1,1.39,1.39,0,0,1-.53,1.45C1234.6,265.94,1234.39,266.06,1234.2,266.19Zm-7.6-3.64c-.57,0-1.13-.06-1.7-.07-.07,0-.15.09-.21.15a2.89,2.89,0,0,0-.36,3.32,5.38,5.38,0,0,0,1.73,1.85,11.8,11.8,0,0,0,4.64,1.85c.42.09.85.13,1.31.19,0-.23,0-.37,0-.51,0-.78-.11-1.54-.15-2.32s0-.82-.9-.83a6.29,6.29,0,0,1-3.77-1,1.68,1.68,0,0,1-.61-2.53S1226.59,262.64,1226.6,262.55Zm50.88-38.42h1.88c.28,0,.42-.08.42-.38,0-1.21,0-2.43,0-3.64,0-.25-.09-.35-.35-.35-1.27,0-2.53,0-3.8,0-.29,0-.36.11-.36.37q0,1.8,0,3.6c0,.3.08.41.38.4C1276.26,224.11,1276.87,224.13,1277.48,224.13Z"/>
      <path class="cls-2" d="M1268.74,233.21c0,.75,0,1.52-.13,2.27a3.17,3.17,0,0,1-.5,1.32,1.94,1.94,0,0,1-3.43-.29,5.53,5.53,0,0,1-.52-2,31.25,31.25,0,0,1,.14-3.74,4.15,4.15,0,0,1,.52-1.45,1.91,1.91,0,0,1,2-1,1.65,1.65,0,0,1,1.49,1.31,12.59,12.59,0,0,1,.34,2,13.52,13.52,0,0,1,0,1.56Z"/>
      <path class="cls-2" d="M1253.29,233.43A18.15,18.15,0,0,1,1253,236a2.59,2.59,0,0,1-2.13,2,1.82,1.82,0,0,1-2.09-.95,2.05,2.05,0,0,1,.59-2.52,5.86,5.86,0,0,1,2.71-1C1252.43,233.52,1252.79,233.49,1253.29,233.43Z"/>
      <path class="cls-2" d="M1286.07,232.79c.09-.86.15-1.72.29-2.57a3.46,3.46,0,0,1,.46-1.19,2.07,2.07,0,0,1,2.23-.9,1.88,1.88,0,0,1,1.6,1.38,11.41,11.41,0,0,1,.42,4.19,13.48,13.48,0,0,1-.38,2.6,2.1,2.1,0,0,1-4,.27,10.65,10.65,0,0,1-.47-2.1c-.08-.55-.06-1.11-.09-1.67Z"/>
      <path class="cls-2" d="M1256.7,252.66a3.75,3.75,0,0,1-.5,2.63,1.92,1.92,0,0,1-1.32.81,1.36,1.36,0,0,1-1.53-.76,1.59,1.59,0,0,1,.38-1.83A5.14,5.14,0,0,1,1256.7,252.66Z"/>
      <path class="cls-2" d="M1292.34,250.77h-3.95a2.29,2.29,0,0,1,.94-2,1.92,1.92,0,0,1,2.12-.05A2.28,2.28,0,0,1,1292.34,250.77Z"/>
    </g>
  </g>
</svg>