<svg width="434" height="434" viewBox="0 0 434 434" fill="none" xmlns="http://www.w3.org/2000/svg">
<path d="M219.666 313.847C273.919 313.847 317.899 269.867 317.899 215.614C317.899 161.361 273.919 117.381 219.666 117.381C165.414 117.381 121.433 161.361 121.433 215.614C121.433 269.867 165.414 313.847 219.666 313.847Z" stroke="#DBDFE0"/>
<path d="M242.397 232.825C242.257 232.825 242.13 232.893 242.05 233C241.054 234.388 239.925 235.721 238.667 236.936C236.895 238.646 234.938 240.142 232.819 241.364C232.444 241.581 232.6 242.143 233.035 242.143H247.917C248.153 242.143 248.343 241.955 248.343 241.725V233.246C248.343 233.013 248.153 232.825 247.917 232.825H242.397Z" fill="#EE4723"/>
<path d="M244.169 216.863C244.169 210.956 240.782 203.528 233.002 194.155C227.626 187.679 222.321 182.713 222.1 182.504L219.128 179.731C218.965 179.577 218.707 179.577 218.542 179.731L215.57 182.504C215.347 182.713 210.043 187.679 204.666 194.155C196.887 203.528 193.141 211.735 193.141 217.642C193.141 221.623 194.088 226.006 195.769 229.491C195.84 229.634 195.99 229.725 196.156 229.725H206.436C206.802 229.725 206.997 229.305 206.757 229.037C204.169 226.109 202.621 221.746 202.621 217.642C202.621 216.006 203.516 210.71 211.969 200.508C214.314 197.677 216.676 194.946 218.533 193.008C218.699 192.831 218.982 192.831 219.15 193.005C221.009 194.915 223.373 197.385 225.72 200.216C234.174 210.42 235.089 215.278 235.089 216.913C235.089 225.676 226.964 232.8 218.173 232.858C218.137 232.858 190.193 232.834 190.193 232.834C189.958 232.834 189.769 233.023 189.769 233.254V241.733C189.769 241.966 189.958 242.151 190.193 242.151C197.373 242.151 218.139 242.151 218.176 242.151C232.231 242.082 244.169 230.764 244.169 216.863Z" fill="#EE4723"/>
<path d="M221.405 54.9902C220.752 54.3381 220.06 53.6388 219.446 52.9414C218.872 53.5936 218.265 54.1877 217.658 54.7946C217.512 54.9395 217.392 55.1098 217.305 55.2964C217.171 55.5899 217.128 55.9177 217.182 56.2366C217.182 56.2692 217.182 56.3018 217.182 56.3344C217.238 56.5101 217.321 56.675 217.43 56.8235C217.448 56.8489 217.463 56.8742 217.475 56.9014C217.874 57.3978 218.82 58.3108 219.349 58.8198L222.482 62.0842L223.423 63.0769C224.198 63.8812 224.897 64.7544 225.511 65.6873C225.586 65.8159 225.703 65.9101 225.845 65.9554H225.91C226.062 65.93 226.187 65.8213 226.236 65.6746C226.439 65.0188 226.542 64.3377 226.542 63.6511C226.524 62.0624 226.02 60.519 225.1 59.2256C224.015 57.7093 222.783 56.3054 221.419 55.0355L221.405 54.9902Z" fill="#3F5157"/>
<path d="M222.28 65.5004C221.503 64.553 220.753 63.6853 219.572 62.4263C218.573 63.5693 217.659 64.4497 216.901 65.3446C215.568 66.7884 215.657 69.0383 217.101 70.3716C218.544 71.7049 220.794 71.6161 222.128 70.1723C223.26 68.9477 223.388 67.1 222.437 65.7287C222.39 65.6472 222.338 65.5711 222.28 65.5004Z" fill="#3F5157"/>
<path d="M217.672 60.8773C217.759 60.7777 217.759 60.6309 217.672 60.5313L215.367 58.1745L214.871 57.7053C214.472 58.1691 214.099 58.6546 213.755 59.1618C213.197 59.9661 212.782 60.861 212.529 61.8048C212.251 62.8917 212.277 64.0348 212.607 65.1072L212.652 65.205C212.71 65.3209 212.775 65.4314 212.847 65.5383C212.847 65.5383 213.116 65.9695 213.349 65.9894H213.434C213.514 65.9713 213.579 65.9151 213.61 65.839C213.828 65.3825 214.099 64.9568 214.42 64.5655L215.262 63.5402L217.672 60.8773Z" fill="#3F5157"/>
<path d="M219.532 42C208.748 41.9964 200.004 50.7351 200 61.5173C199.996 72.2994 208.735 81.0455 219.517 81.0491C230.301 81.0527 239.045 72.3139 239.049 61.5318C239.049 61.53 239.049 61.5282 239.049 61.5245C239.049 50.7442 230.312 42.0036 219.532 42ZM219.419 73.9081C213.746 73.8936 209.152 69.2941 209.145 63.6205C209.145 58.7964 212.364 55.5846 215.195 52.7459C217.088 50.8529 218.896 49.0504 219.432 47.0215C219.967 49.0522 221.776 50.8529 223.669 52.7459C226.51 55.5864 229.72 58.7964 229.72 63.6205C229.714 69.3032 225.104 73.9081 219.419 73.9081Z" fill="#3F5157"/>
<path fill-rule="evenodd" clip-rule="evenodd" d="M137.558 330.741C141.945 330.741 145.939 332.422 148.933 335.174C147.466 335.135 146.001 336.007 145.941 338.005C145.817 342.043 150.77 342.904 148.101 351.027L145.894 357.746L139.882 340.037C139.789 339.762 139.897 339.606 140.234 339.606H141.934C142.022 339.606 142.094 339.531 142.094 339.439V338.432C142.094 338.34 142.022 338.26 141.934 338.264C138.715 338.405 135.515 338.406 132.335 338.264C132.246 338.26 132.174 338.34 132.174 338.432V339.439C132.174 339.531 132.247 339.607 132.335 339.607H134.044C134.424 339.607 134.53 339.733 134.62 339.979L137.09 346.734L133.374 357.954L127.266 339.963C127.191 339.738 127.282 339.607 127.5 339.607H129.447C129.535 339.607 129.607 339.531 129.607 339.439V338.432C129.607 338.34 129.535 338.26 129.447 338.264C127.404 338.373 125.353 338.395 123.443 338.414C126.44 333.796 131.642 330.74 137.557 330.74L137.558 330.741ZM152.349 339.55C153.641 341.931 154.375 344.659 154.375 347.557C154.375 353.918 150.84 359.455 145.629 362.313L150.874 347.458C151.686 345.159 152.441 342.052 152.349 339.55ZM143.188 363.406C141.428 364.033 139.533 364.374 137.558 364.374C135.856 364.374 134.215 364.12 132.667 363.651L137.848 348.804L143.188 363.407L143.188 363.406ZM130.362 362.76C124.675 360.062 120.741 354.269 120.741 347.558C120.741 345.07 121.282 342.709 122.252 340.584L130.362 362.76ZM137.557 329.163C147.714 329.163 155.952 337.4 155.952 347.557C155.952 357.714 147.714 365.951 137.557 365.951C127.4 365.951 119.163 357.714 119.163 347.557C119.163 337.4 127.4 329.163 137.557 329.163ZM137.557 328C148.357 328 157.115 336.758 157.115 347.557C157.115 358.357 148.357 367.115 137.557 367.115C126.758 367.115 118 358.357 118 347.557C118 336.758 126.758 328 137.557 328Z" fill="#3F5157"/>
<path d="M292.049 356.391C292.049 353.805 288.81 351.353 283.843 349.833C284.989 344.771 284.48 340.743 282.235 339.454C281.718 339.151 281.113 339.008 280.452 339.008V340.783C280.818 340.783 281.113 340.855 281.36 340.99C282.442 341.611 282.912 343.975 282.546 347.015C282.458 347.763 282.315 348.551 282.14 349.355C280.58 348.973 278.876 348.679 277.085 348.488C276.011 347.015 274.896 345.678 273.774 344.508C276.369 342.096 278.805 340.775 280.46 340.775V339C278.271 339 275.406 340.56 272.509 343.266C269.611 340.576 266.746 339.032 264.557 339.032V340.807C266.205 340.807 268.648 342.12 271.243 344.516C270.129 345.686 269.014 347.015 267.956 348.488C266.157 348.679 264.454 348.973 262.894 349.363C262.711 348.567 262.575 347.795 262.48 347.055C262.106 344.014 262.567 341.65 263.642 341.022C263.881 340.878 264.191 340.815 264.557 340.815V339.04C263.889 339.04 263.284 339.183 262.758 339.486C260.522 340.775 260.02 344.794 261.174 349.841C256.224 351.369 253 353.813 253 356.391C253 358.978 256.239 361.43 261.206 362.95C260.06 368.012 260.569 372.04 262.814 373.329C263.331 373.632 263.936 373.775 264.605 373.775C266.794 373.775 269.659 372.215 272.556 369.509C275.454 372.199 278.319 373.743 280.508 373.743C281.176 373.743 281.781 373.6 282.307 373.297C284.543 372.008 285.045 367.988 283.891 362.942C288.826 361.422 292.049 358.97 292.049 356.391ZM281.686 351.082C281.391 352.109 281.025 353.168 280.611 354.226C280.285 353.59 279.943 352.953 279.569 352.316C279.203 351.679 278.813 351.059 278.423 350.454C279.553 350.621 280.643 350.828 281.686 351.082ZM278.04 359.559C277.42 360.634 276.783 361.653 276.122 362.6C274.936 362.703 273.734 362.759 272.525 362.759C271.323 362.759 270.121 362.703 268.943 362.608C268.282 361.661 267.637 360.65 267.017 359.583C266.412 358.54 265.862 357.482 265.361 356.415C265.855 355.349 266.412 354.282 267.009 353.239C267.629 352.165 268.266 351.146 268.927 350.199C270.113 350.095 271.315 350.04 272.525 350.04C273.726 350.04 274.928 350.095 276.106 350.191C276.767 351.138 277.412 352.149 278.032 353.216C278.637 354.258 279.187 355.317 279.688 356.383C279.187 357.45 278.637 358.517 278.04 359.559ZM280.611 358.525C281.041 359.591 281.407 360.658 281.71 361.692C280.667 361.947 279.569 362.162 278.43 362.329C278.82 361.716 279.21 361.087 279.577 360.443C279.943 359.806 280.285 359.161 280.611 358.525ZM272.54 367.017C271.8 366.253 271.06 365.402 270.328 364.47C271.044 364.502 271.776 364.526 272.517 364.526C273.265 364.526 274.005 364.51 274.729 364.47C274.013 365.402 273.273 366.253 272.54 367.017ZM266.619 362.329C265.488 362.162 264.398 361.955 263.355 361.7C263.65 360.674 264.016 359.615 264.43 358.556C264.756 359.193 265.098 359.83 265.472 360.467C265.847 361.103 266.229 361.724 266.619 362.329ZM272.501 345.766C273.241 346.53 273.981 347.381 274.713 348.313C273.997 348.281 273.265 348.257 272.525 348.257C271.776 348.257 271.036 348.273 270.312 348.313C271.028 347.381 271.768 346.53 272.501 345.766ZM266.611 350.454C266.221 351.067 265.831 351.695 265.465 352.34C265.098 352.977 264.756 353.614 264.43 354.25C264 353.184 263.634 352.117 263.331 351.082C264.374 350.836 265.472 350.621 266.611 350.454ZM259.407 360.419C256.59 359.217 254.767 357.641 254.767 356.391C254.767 355.142 256.59 353.558 259.407 352.364C260.092 352.069 260.84 351.807 261.612 351.56C262.066 353.12 262.663 354.744 263.403 356.407C262.671 358.063 262.082 359.679 261.636 361.231C260.848 360.984 260.1 360.713 259.407 360.419ZM263.69 371.793C262.607 371.172 262.137 368.808 262.504 365.768C262.591 365.019 262.734 364.231 262.91 363.428C264.47 363.81 266.173 364.104 267.964 364.295C269.038 365.768 270.153 367.105 271.275 368.275C268.68 370.687 266.245 372.008 264.589 372.008C264.231 372 263.928 371.928 263.69 371.793ZM282.569 365.728C282.943 368.768 282.482 371.132 281.407 371.761C281.169 371.904 280.858 371.968 280.492 371.968C278.844 371.968 276.401 370.655 273.806 368.259C274.92 367.089 276.035 365.76 277.093 364.287C278.892 364.096 280.595 363.802 282.155 363.412C282.339 364.216 282.482 364.988 282.569 365.728ZM285.634 360.419C284.949 360.713 284.201 360.976 283.429 361.223C282.975 359.663 282.378 358.039 281.638 356.375C282.37 354.72 282.959 353.104 283.405 351.552C284.193 351.799 284.941 352.069 285.642 352.364C288.459 353.566 290.282 355.142 290.282 356.391C290.274 357.641 288.451 359.225 285.634 360.419Z" fill="#3F5157"/>
<path d="M272.517 360.029C274.526 360.029 276.154 358.4 276.154 356.391C276.154 354.382 274.526 352.754 272.517 352.754C270.508 352.754 268.879 354.382 268.879 356.391C268.879 358.4 270.508 360.029 272.517 360.029Z" fill="#3F5157"/>
<path d="M364.525 249.001L345 255.963L347.978 281.779L364.525 290.944L381.071 281.779L384.049 255.963L364.525 249.001Z" fill="#032633"/>
<path d="M364.524 249V253.656V253.635V274.879V290.943L381.071 281.779L384.049 255.963L364.524 249Z" fill="#3F5157"/>
<path d="M364.525 253.635L352.32 281.003H356.871L359.324 274.879H369.684L372.138 281.003H376.689L364.525 253.635ZM368.09 271.104H360.96L364.525 262.527L368.09 271.104Z" fill="white"/>
<path d="M96.4814 140.963C107.241 140.963 115.963 132.241 115.963 121.481C115.963 110.722 107.241 102 96.4814 102C85.7221 102 77 110.722 77 121.481C77 132.241 85.7221 140.963 96.4814 140.963Z" fill="#3F5157"/>
<path d="M104.96 109.198C102.984 109.267 101.258 110.356 99.9744 111.863C98.5526 113.515 97.6067 115.475 96.9251 117.475C95.7059 116.476 94.7654 115.182 92.8095 114.618C91.2977 114.184 89.7098 114.364 88.2496 115.452C87.5579 115.968 87.0813 116.749 86.8548 117.484C86.2679 119.392 87.4716 121.09 88.0182 121.699L89.2135 122.98C89.4599 123.232 90.0533 123.887 89.7632 124.826C89.4497 125.847 88.2184 126.509 86.9555 126.119C86.3914 125.947 85.581 125.527 85.7626 124.935C85.8375 124.693 86.0108 124.512 86.1037 124.303C86.1888 124.123 86.2296 123.988 86.2553 123.909C86.4861 123.155 86.1708 122.175 85.364 121.927C84.6111 121.696 83.8408 121.879 83.5423 122.848C83.2036 123.949 83.7305 125.948 86.5532 126.818C89.8603 127.834 92.6578 126.033 93.0546 123.685C93.3046 122.214 92.6404 121.121 91.4236 119.715L90.4321 118.619C89.8315 118.019 89.6253 116.996 90.2469 116.21C90.7714 115.547 91.5183 115.265 92.7417 115.597C94.5274 116.082 95.3235 117.321 96.6518 118.32C96.1033 120.119 95.7449 121.925 95.4206 123.544L95.2228 124.751C94.2733 129.731 93.5486 132.466 91.6652 134.036C91.2857 134.305 90.7432 134.709 89.9256 134.738C89.497 134.751 89.3586 134.456 89.3526 134.328C89.3424 134.027 89.5959 133.889 89.7644 133.753C90.0161 133.616 90.3968 133.388 90.371 132.659C90.3434 131.797 89.6295 131.049 88.5973 131.083C87.824 131.11 86.6456 131.838 86.6899 133.169C86.7361 134.545 88.0182 135.576 89.9514 135.511C90.9848 135.475 93.2926 135.055 95.5668 132.351C98.2139 129.252 98.9542 125.699 99.5111 123.099L100.133 119.666C100.478 119.708 100.847 119.735 101.249 119.745C104.546 119.814 106.195 118.106 106.219 116.864C106.235 116.113 105.726 115.373 105.013 115.39C104.502 115.404 103.861 115.744 103.706 116.45C103.556 117.143 104.755 117.768 103.818 118.376C103.152 118.807 101.958 119.11 100.277 118.864L100.582 117.174C101.206 113.969 101.976 110.027 104.896 109.931C105.109 109.921 105.887 109.941 105.905 110.456C105.911 110.628 105.868 110.672 105.667 111.066C105.462 111.372 105.384 111.634 105.394 111.934C105.422 112.752 106.044 113.29 106.944 113.258C108.149 113.219 108.495 112.046 108.475 111.443C108.427 110.028 106.935 109.134 104.96 109.198Z" fill="white"/>
<path d="M350.073 115L345.557 122.823L341.041 115H326L345.557 148.874L365.114 115H350.073Z" fill="#6F838A"/>
<path d="M350.073 115L345.557 122.823L341.04 115H333.823L345.557 135.324L357.291 115H350.073Z" fill="#3F5157"/>
<path fill-rule="evenodd" clip-rule="evenodd" d="M92.8953 234.823C92.9093 234.875 92.9165 234.928 92.9167 234.982V243.354C92.9167 243.461 92.8883 243.567 92.8344 243.659C92.7805 243.752 92.703 243.83 92.6097 243.883L85.5775 247.928V255.946C85.5775 256.164 85.4615 256.366 85.2721 256.476L70.5931 264.919C70.5595 264.938 70.5228 264.95 70.4862 264.963C70.4724 264.968 70.4594 264.976 70.4449 264.98C70.3423 265.007 70.2345 265.007 70.1318 264.98C70.115 264.975 70.0998 264.966 70.0837 264.96C70.0501 264.948 70.015 264.937 69.9829 264.919L55.307 256.476C55.2137 256.422 55.1363 256.345 55.0824 256.252C55.0285 256.159 55.0001 256.054 55 255.946V230.833C55 230.778 55.0076 230.724 55.0214 230.672C55.026 230.655 55.0367 230.639 55.0428 230.621C55.0542 230.589 55.0649 230.556 55.0817 230.527C55.0932 230.507 55.11 230.491 55.1237 230.472C55.1413 230.448 55.1573 230.423 55.1779 230.401C55.1955 230.384 55.2184 230.371 55.2382 230.356C55.2604 230.337 55.2802 230.318 55.3054 230.303H55.3062L62.6446 226.082C62.7375 226.028 62.8428 226 62.95 226C63.0572 226 63.1626 226.028 63.2555 226.082L70.5938 230.303H70.5954C70.6198 230.318 70.6404 230.337 70.6626 230.355C70.6824 230.37 70.7046 230.384 70.7221 230.401C70.7435 230.423 70.7588 230.448 70.7771 230.472C70.7901 230.491 70.8076 230.507 70.8183 230.527C70.8359 230.557 70.8458 230.589 70.858 230.621C70.8642 230.639 70.8748 230.655 70.8794 230.673C70.8935 230.725 70.9007 230.779 70.9008 230.833V246.518L77.0159 243V234.982C77.0159 234.928 77.0235 234.874 77.0372 234.823C77.0426 234.805 77.0525 234.788 77.0586 234.771C77.0708 234.739 77.0815 234.706 77.0983 234.676C77.1098 234.656 77.1266 234.64 77.1396 234.622C77.1579 234.598 77.1732 234.573 77.1945 234.551C77.2121 234.534 77.2343 234.521 77.2541 234.505C77.277 234.487 77.2969 234.467 77.3213 234.453H77.3221L84.6612 230.231C84.7541 230.178 84.8594 230.15 84.9666 230.15C85.0739 230.15 85.1792 230.178 85.2721 230.231L92.6105 234.453C92.6364 234.468 92.6563 234.487 92.6792 234.505C92.6983 234.52 92.7204 234.534 92.738 234.55C92.7594 234.573 92.7746 234.598 92.793 234.622C92.8067 234.64 92.8235 234.656 92.8342 234.676C92.8518 234.706 92.8617 234.739 92.8739 234.771C92.8808 234.788 92.8907 234.805 92.8953 234.823V234.823ZM91.6933 243V236.039L89.1253 237.516L85.5775 239.557V246.518L91.6941 243H91.6933ZM84.355 255.593V248.627L80.8653 250.618L70.9 256.301V263.333L84.355 255.593ZM56.2233 231.889V255.593L69.6767 263.332V256.302L62.6484 252.328L62.6461 252.326L62.643 252.324C62.6194 252.311 62.5995 252.291 62.5774 252.274C62.5583 252.259 62.5361 252.247 62.5193 252.23L62.5178 252.228C62.498 252.208 62.4842 252.185 62.4674 252.163C62.4521 252.143 62.4338 252.125 62.4216 252.104L62.4208 252.102C62.4071 252.079 62.3987 252.051 62.3888 252.025C62.3788 252.002 62.3659 251.981 62.3597 251.957V251.956C62.3521 251.927 62.3506 251.896 62.3475 251.867C62.3445 251.844 62.3384 251.821 62.3384 251.798V251.796V235.407L58.7914 233.366L56.2233 231.89V231.889ZM62.9508 227.316L56.8365 230.833L62.9493 234.349L69.0628 230.832L62.9493 227.316H62.9508ZM66.1305 249.262L69.6775 247.222V231.889L67.1094 233.366L63.5617 235.407V250.74L66.1305 249.262ZM84.9666 231.466L78.8531 234.982L84.9666 238.499L91.0794 234.982L84.9666 231.466V231.466ZM84.355 239.557L80.8072 237.516L78.2392 236.039V243L81.7862 245.04L84.355 246.518V239.557ZM70.2876 255.244L79.2548 250.129L83.7372 247.573L77.6283 244.059L70.5946 248.105L64.184 251.793L70.2876 255.244V255.244Z" fill="#3F5157"/>
<path d="M1 216.804C1 186.793 1 132.79 1.09727 86.2893C1.1459 63.0389 1.21885 41.6651 1.32827 26.1041C1.38298 18.3234 1.4468 11.9975 1.52122 7.61737C1.55845 5.42679 1.59828 3.72583 1.64083 2.57382C1.66184 2.00494 1.68333 1.57556 1.70504 1.28882C29.0566 1.2876 67.1028 1.17099 105.771 1.05246L107.719 1.04651C147.256 0.925356 187.267 0.804201 217 0.804202C336.214 0.804203 433 97.5902 433 216.804C433 336.018 336.214 432.804 217 432.804C97.786 432.804 1 336.018 1 216.804Z" stroke="#DBDFE0"/>
</svg>